<?xml version="1.0" encoding="UTF-8"?>
<svg xmlns="http://www.w3.org/2000/svg" xmlns:xlink="http://www.w3.org/1999/xlink" width="432pt" height="288pt" viewBox="0 0 432 288" version="1.1">
<defs>
<clipPath id="clip1">
  <path d="M 5.480469 5.480469 L 426.523438 5.480469 L 426.523438 282.523438 L 5.480469 282.523438 Z M 5.480469 5.480469 "/>
</clipPath>
<clipPath id="clip2">
  <path d="M 5.480469 229 L 426.523438 229 L 426.523438 231 L 5.480469 231 Z M 5.480469 229 "/>
</clipPath>
<clipPath id="clip3">
  <path d="M 5.480469 156 L 426.523438 156 L 426.523438 158 L 5.480469 158 Z M 5.480469 156 "/>
</clipPath>
<clipPath id="clip4">
  <path d="M 5.480469 83 L 426.523438 83 L 426.523438 85 L 5.480469 85 Z M 5.480469 83 "/>
</clipPath>
<clipPath id="clip5">
  <path d="M 5.480469 10 L 426.523438 10 L 426.523438 12 L 5.480469 12 Z M 5.480469 10 "/>
</clipPath>
<clipPath id="clip6">
  <path d="M 17 5.480469 L 18 5.480469 L 18 282.523438 L 17 282.523438 Z M 17 5.480469 "/>
</clipPath>
<clipPath id="clip7">
  <path d="M 88 5.480469 L 89 5.480469 L 89 282.523438 L 88 282.523438 Z M 88 5.480469 "/>
</clipPath>
<clipPath id="clip8">
  <path d="M 159 5.480469 L 160 5.480469 L 160 282.523438 L 159 282.523438 Z M 159 5.480469 "/>
</clipPath>
<clipPath id="clip9">
  <path d="M 229 5.480469 L 231 5.480469 L 231 282.523438 L 229 282.523438 Z M 229 5.480469 "/>
</clipPath>
<clipPath id="clip10">
  <path d="M 300 5.480469 L 302 5.480469 L 302 282.523438 L 300 282.523438 Z M 300 5.480469 "/>
</clipPath>
<clipPath id="clip11">
  <path d="M 371 5.480469 L 373 5.480469 L 373 282.523438 L 371 282.523438 Z M 371 5.480469 "/>
</clipPath>
<clipPath id="clip12">
  <path d="M 5.480469 266 L 426.523438 266 L 426.523438 268 L 5.480469 268 Z M 5.480469 266 "/>
</clipPath>
<clipPath id="clip13">
  <path d="M 5.480469 192 L 426.523438 192 L 426.523438 195 L 5.480469 195 Z M 5.480469 192 "/>
</clipPath>
<clipPath id="clip14">
  <path d="M 5.480469 119 L 426.523438 119 L 426.523438 121 L 5.480469 121 Z M 5.480469 119 "/>
</clipPath>
<clipPath id="clip15">
  <path d="M 5.480469 46 L 426.523438 46 L 426.523438 48 L 5.480469 48 Z M 5.480469 46 "/>
</clipPath>
<clipPath id="clip16">
  <path d="M 52 5.480469 L 54 5.480469 L 54 282.523438 L 52 282.523438 Z M 52 5.480469 "/>
</clipPath>
<clipPath id="clip17">
  <path d="M 123 5.480469 L 125 5.480469 L 125 282.523438 L 123 282.523438 Z M 123 5.480469 "/>
</clipPath>
<clipPath id="clip18">
  <path d="M 194 5.480469 L 196 5.480469 L 196 282.523438 L 194 282.523438 Z M 194 5.480469 "/>
</clipPath>
<clipPath id="clip19">
  <path d="M 265 5.480469 L 267 5.480469 L 267 282.523438 L 265 282.523438 Z M 265 5.480469 "/>
</clipPath>
<clipPath id="clip20">
  <path d="M 335 5.480469 L 338 5.480469 L 338 282.523438 L 335 282.523438 Z M 335 5.480469 "/>
</clipPath>
<clipPath id="clip21">
  <path d="M 406 5.480469 L 408 5.480469 L 408 282.523438 L 406 282.523438 Z M 406 5.480469 "/>
</clipPath>
</defs>
<g id="surface1">
<rect x="0" y="0" width="432" height="288" style="fill:rgb(100%,100%,100%);fill-opacity:1;stroke:none;"/>
<rect x="0" y="0" width="432" height="288" style="fill:rgb(100%,100%,100%);fill-opacity:1;stroke:none;"/>
<path style="fill:none;stroke-width:1.066978;stroke-linecap:round;stroke-linejoin:round;stroke:rgb(100%,100%,100%);stroke-opacity:1;stroke-miterlimit:10;" d="M 0 288 L 432 288 L 432 0 L 0 0 Z M 0 288 "/>
<g clip-path="url(#clip1)" clip-rule="nonzero">
<path style=" stroke:none;fill-rule:nonzero;fill:rgb(92.156863%,92.156863%,92.156863%);fill-opacity:1;" d="M 5.480469 282.519531 L 426.523438 282.519531 L 426.523438 5.476562 L 5.480469 5.476562 Z M 5.480469 282.519531 "/>
</g>
<g clip-path="url(#clip2)" clip-rule="nonzero">
<path style="fill:none;stroke-width:0.533489;stroke-linecap:butt;stroke-linejoin:round;stroke:rgb(100%,100%,100%);stroke-opacity:1;stroke-miterlimit:10;" d="M 5.480469 230.046875 L 426.519531 230.046875 "/>
</g>
<g clip-path="url(#clip3)" clip-rule="nonzero">
<path style="fill:none;stroke-width:0.533489;stroke-linecap:butt;stroke-linejoin:round;stroke:rgb(100%,100%,100%);stroke-opacity:1;stroke-miterlimit:10;" d="M 5.480469 156.953125 L 426.519531 156.953125 "/>
</g>
<g clip-path="url(#clip4)" clip-rule="nonzero">
<path style="fill:none;stroke-width:0.533489;stroke-linecap:butt;stroke-linejoin:round;stroke:rgb(100%,100%,100%);stroke-opacity:1;stroke-miterlimit:10;" d="M 5.480469 83.859375 L 426.519531 83.859375 "/>
</g>
<g clip-path="url(#clip5)" clip-rule="nonzero">
<path style="fill:none;stroke-width:0.533489;stroke-linecap:butt;stroke-linejoin:round;stroke:rgb(100%,100%,100%);stroke-opacity:1;stroke-miterlimit:10;" d="M 5.480469 10.761719 L 426.519531 10.761719 "/>
</g>
<g clip-path="url(#clip6)" clip-rule="nonzero">
<path style="fill:none;stroke-width:0.533489;stroke-linecap:butt;stroke-linejoin:round;stroke:rgb(100%,100%,100%);stroke-opacity:1;stroke-miterlimit:10;" d="M 17.53125 282.519531 L 17.53125 5.480469 "/>
</g>
<g clip-path="url(#clip7)" clip-rule="nonzero">
<path style="fill:none;stroke-width:0.533489;stroke-linecap:butt;stroke-linejoin:round;stroke:rgb(100%,100%,100%);stroke-opacity:1;stroke-miterlimit:10;" d="M 88.410156 282.519531 L 88.410156 5.480469 "/>
</g>
<g clip-path="url(#clip8)" clip-rule="nonzero">
<path style="fill:none;stroke-width:0.533489;stroke-linecap:butt;stroke-linejoin:round;stroke:rgb(100%,100%,100%);stroke-opacity:1;stroke-miterlimit:10;" d="M 159.292969 282.519531 L 159.292969 5.480469 "/>
</g>
<g clip-path="url(#clip9)" clip-rule="nonzero">
<path style="fill:none;stroke-width:0.533489;stroke-linecap:butt;stroke-linejoin:round;stroke:rgb(100%,100%,100%);stroke-opacity:1;stroke-miterlimit:10;" d="M 230.175781 282.519531 L 230.175781 5.480469 "/>
</g>
<g clip-path="url(#clip10)" clip-rule="nonzero">
<path style="fill:none;stroke-width:0.533489;stroke-linecap:butt;stroke-linejoin:round;stroke:rgb(100%,100%,100%);stroke-opacity:1;stroke-miterlimit:10;" d="M 301.058594 282.519531 L 301.058594 5.480469 "/>
</g>
<g clip-path="url(#clip11)" clip-rule="nonzero">
<path style="fill:none;stroke-width:0.533489;stroke-linecap:butt;stroke-linejoin:round;stroke:rgb(100%,100%,100%);stroke-opacity:1;stroke-miterlimit:10;" d="M 371.941406 282.519531 L 371.941406 5.480469 "/>
</g>
<g clip-path="url(#clip12)" clip-rule="nonzero">
<path style="fill:none;stroke-width:1.066978;stroke-linecap:butt;stroke-linejoin:round;stroke:rgb(100%,100%,100%);stroke-opacity:1;stroke-miterlimit:10;" d="M 5.480469 266.59375 L 426.519531 266.59375 "/>
</g>
<g clip-path="url(#clip13)" clip-rule="nonzero">
<path style="fill:none;stroke-width:1.066978;stroke-linecap:butt;stroke-linejoin:round;stroke:rgb(100%,100%,100%);stroke-opacity:1;stroke-miterlimit:10;" d="M 5.480469 193.5 L 426.519531 193.5 "/>
</g>
<g clip-path="url(#clip14)" clip-rule="nonzero">
<path style="fill:none;stroke-width:1.066978;stroke-linecap:butt;stroke-linejoin:round;stroke:rgb(100%,100%,100%);stroke-opacity:1;stroke-miterlimit:10;" d="M 5.480469 120.40625 L 426.519531 120.40625 "/>
</g>
<g clip-path="url(#clip15)" clip-rule="nonzero">
<path style="fill:none;stroke-width:1.066978;stroke-linecap:butt;stroke-linejoin:round;stroke:rgb(100%,100%,100%);stroke-opacity:1;stroke-miterlimit:10;" d="M 5.480469 47.308594 L 426.519531 47.308594 "/>
</g>
<g clip-path="url(#clip16)" clip-rule="nonzero">
<path style="fill:none;stroke-width:1.066978;stroke-linecap:butt;stroke-linejoin:round;stroke:rgb(100%,100%,100%);stroke-opacity:1;stroke-miterlimit:10;" d="M 52.96875 282.519531 L 52.96875 5.480469 "/>
</g>
<g clip-path="url(#clip17)" clip-rule="nonzero">
<path style="fill:none;stroke-width:1.066978;stroke-linecap:butt;stroke-linejoin:round;stroke:rgb(100%,100%,100%);stroke-opacity:1;stroke-miterlimit:10;" d="M 123.851562 282.519531 L 123.851562 5.480469 "/>
</g>
<g clip-path="url(#clip18)" clip-rule="nonzero">
<path style="fill:none;stroke-width:1.066978;stroke-linecap:butt;stroke-linejoin:round;stroke:rgb(100%,100%,100%);stroke-opacity:1;stroke-miterlimit:10;" d="M 194.734375 282.519531 L 194.734375 5.480469 "/>
</g>
<g clip-path="url(#clip19)" clip-rule="nonzero">
<path style="fill:none;stroke-width:1.066978;stroke-linecap:butt;stroke-linejoin:round;stroke:rgb(100%,100%,100%);stroke-opacity:1;stroke-miterlimit:10;" d="M 265.617188 282.519531 L 265.617188 5.480469 "/>
</g>
<g clip-path="url(#clip20)" clip-rule="nonzero">
<path style="fill:none;stroke-width:1.066978;stroke-linecap:butt;stroke-linejoin:round;stroke:rgb(100%,100%,100%);stroke-opacity:1;stroke-miterlimit:10;" d="M 336.5 282.519531 L 336.5 5.480469 "/>
</g>
<g clip-path="url(#clip21)" clip-rule="nonzero">
<path style="fill:none;stroke-width:1.066978;stroke-linecap:butt;stroke-linejoin:round;stroke:rgb(100%,100%,100%);stroke-opacity:1;stroke-miterlimit:10;" d="M 407.382812 282.519531 L 407.382812 5.480469 "/>
</g>
<path style="fill-rule:nonzero;fill:rgb(0%,0%,0%);fill-opacity:1;stroke-width:0.708661;stroke-linecap:round;stroke-linejoin:round;stroke:rgb(0%,0%,0%);stroke-opacity:1;stroke-miterlimit:10;" d="M 40.75 127.714844 C 40.75 130.320312 36.839844 130.320312 36.839844 127.714844 C 36.839844 125.109375 40.75 125.109375 40.75 127.714844 "/>
<path style="fill-rule:nonzero;fill:rgb(0%,0%,0%);fill-opacity:1;stroke-width:0.708661;stroke-linecap:round;stroke-linejoin:round;stroke:rgb(0%,0%,0%);stroke-opacity:1;stroke-miterlimit:10;" d="M 40.75 127.714844 C 40.75 130.320312 36.839844 130.320312 36.839844 127.714844 C 36.839844 125.109375 40.75 125.109375 40.75 127.714844 "/>
<path style="fill-rule:nonzero;fill:rgb(0%,0%,0%);fill-opacity:1;stroke-width:0.708661;stroke-linecap:round;stroke-linejoin:round;stroke:rgb(0%,0%,0%);stroke-opacity:1;stroke-miterlimit:10;" d="M 54.925781 113.09375 C 54.925781 115.703125 51.015625 115.703125 51.015625 113.09375 C 51.015625 110.488281 54.925781 110.488281 54.925781 113.09375 "/>
<path style="fill-rule:nonzero;fill:rgb(0%,0%,0%);fill-opacity:1;stroke-width:0.708661;stroke-linecap:round;stroke-linejoin:round;stroke:rgb(0%,0%,0%);stroke-opacity:1;stroke-miterlimit:10;" d="M 54.925781 120.40625 C 54.925781 123.011719 51.015625 123.011719 51.015625 120.40625 C 51.015625 117.796875 54.925781 117.796875 54.925781 120.40625 "/>
<path style="fill-rule:nonzero;fill:rgb(0%,0%,0%);fill-opacity:1;stroke-width:0.708661;stroke-linecap:round;stroke-linejoin:round;stroke:rgb(0%,0%,0%);stroke-opacity:1;stroke-miterlimit:10;" d="M 111.632812 149.644531 C 111.632812 152.25 107.722656 152.25 107.722656 149.644531 C 107.722656 147.035156 111.632812 147.035156 111.632812 149.644531 "/>
<path style="fill-rule:nonzero;fill:rgb(0%,0%,0%);fill-opacity:1;stroke-width:0.708661;stroke-linecap:round;stroke-linejoin:round;stroke:rgb(0%,0%,0%);stroke-opacity:1;stroke-miterlimit:10;" d="M 111.632812 149.644531 C 111.632812 152.25 107.722656 152.25 107.722656 149.644531 C 107.722656 147.035156 111.632812 147.035156 111.632812 149.644531 "/>
<path style="fill-rule:nonzero;fill:rgb(0%,0%,0%);fill-opacity:1;stroke-width:0.708661;stroke-linecap:round;stroke-linejoin:round;stroke:rgb(0%,0%,0%);stroke-opacity:1;stroke-miterlimit:10;" d="M 132.894531 142.332031 C 132.894531 144.941406 128.988281 144.941406 128.988281 142.332031 C 128.988281 139.726562 132.894531 139.726562 132.894531 142.332031 "/>
<path style="fill-rule:nonzero;fill:rgb(0%,0%,0%);fill-opacity:1;stroke-width:0.708661;stroke-linecap:round;stroke-linejoin:round;stroke:rgb(0%,0%,0%);stroke-opacity:1;stroke-miterlimit:10;" d="M 40.75 149.644531 C 40.75 152.25 36.839844 152.25 36.839844 149.644531 C 36.839844 147.035156 40.75 147.035156 40.75 149.644531 "/>
<path style="fill-rule:nonzero;fill:rgb(0%,0%,0%);fill-opacity:1;stroke-width:0.708661;stroke-linecap:round;stroke-linejoin:round;stroke:rgb(0%,0%,0%);stroke-opacity:1;stroke-miterlimit:10;" d="M 40.75 156.953125 C 40.75 159.558594 36.839844 159.558594 36.839844 156.953125 C 36.839844 154.347656 40.75 154.347656 40.75 156.953125 "/>
<path style="fill-rule:nonzero;fill:rgb(0%,0%,0%);fill-opacity:1;stroke-width:0.708661;stroke-linecap:round;stroke-linejoin:round;stroke:rgb(0%,0%,0%);stroke-opacity:1;stroke-miterlimit:10;" d="M 54.925781 135.023438 C 54.925781 137.628906 51.015625 137.628906 51.015625 135.023438 C 51.015625 132.417969 54.925781 132.417969 54.925781 135.023438 "/>
<path style="fill-rule:nonzero;fill:rgb(0%,0%,0%);fill-opacity:1;stroke-width:0.708661;stroke-linecap:round;stroke-linejoin:round;stroke:rgb(0%,0%,0%);stroke-opacity:1;stroke-miterlimit:10;" d="M 54.925781 142.332031 C 54.925781 144.941406 51.015625 144.941406 51.015625 142.332031 C 51.015625 139.726562 54.925781 139.726562 54.925781 142.332031 "/>
<path style="fill-rule:nonzero;fill:rgb(0%,0%,0%);fill-opacity:1;stroke-width:0.708661;stroke-linecap:round;stroke-linejoin:round;stroke:rgb(0%,0%,0%);stroke-opacity:1;stroke-miterlimit:10;" d="M 111.632812 156.953125 C 111.632812 159.558594 107.722656 159.558594 107.722656 156.953125 C 107.722656 154.347656 111.632812 154.347656 111.632812 156.953125 "/>
<path style="fill-rule:nonzero;fill:rgb(0%,0%,0%);fill-opacity:1;stroke-width:0.708661;stroke-linecap:round;stroke-linejoin:round;stroke:rgb(0%,0%,0%);stroke-opacity:1;stroke-miterlimit:10;" d="M 111.632812 156.953125 C 111.632812 159.558594 107.722656 159.558594 107.722656 156.953125 C 107.722656 154.347656 111.632812 154.347656 111.632812 156.953125 "/>
<path style="fill-rule:nonzero;fill:rgb(0%,0%,0%);fill-opacity:1;stroke-width:0.708661;stroke-linecap:round;stroke-linejoin:round;stroke:rgb(0%,0%,0%);stroke-opacity:1;stroke-miterlimit:10;" d="M 132.894531 156.953125 C 132.894531 159.558594 128.988281 159.558594 128.988281 156.953125 C 128.988281 154.347656 132.894531 154.347656 132.894531 156.953125 "/>
<path style="fill-rule:nonzero;fill:rgb(0%,0%,0%);fill-opacity:1;stroke-width:0.708661;stroke-linecap:round;stroke-linejoin:round;stroke:rgb(0%,0%,0%);stroke-opacity:1;stroke-miterlimit:10;" d="M 132.894531 156.953125 C 132.894531 159.558594 128.988281 159.558594 128.988281 156.953125 C 128.988281 154.347656 132.894531 154.347656 132.894531 156.953125 "/>
<path style="fill-rule:nonzero;fill:rgb(0%,0%,0%);fill-opacity:1;stroke-width:0.708661;stroke-linecap:round;stroke-linejoin:round;stroke:rgb(0%,0%,0%);stroke-opacity:1;stroke-miterlimit:10;" d="M 111.632812 164.261719 C 111.632812 166.867188 107.722656 166.867188 107.722656 164.261719 C 107.722656 161.65625 111.632812 161.65625 111.632812 164.261719 "/>
<path style="fill-rule:nonzero;fill:rgb(0%,0%,0%);fill-opacity:1;stroke-width:0.708661;stroke-linecap:round;stroke-linejoin:round;stroke:rgb(0%,0%,0%);stroke-opacity:1;stroke-miterlimit:10;" d="M 132.894531 156.953125 C 132.894531 159.558594 128.988281 159.558594 128.988281 156.953125 C 128.988281 154.347656 132.894531 154.347656 132.894531 156.953125 "/>
<path style="fill-rule:nonzero;fill:rgb(0%,0%,0%);fill-opacity:1;stroke-width:0.708661;stroke-linecap:round;stroke-linejoin:round;stroke:rgb(0%,0%,0%);stroke-opacity:1;stroke-miterlimit:10;" d="M 210.867188 171.570312 C 210.867188 174.175781 206.957031 174.175781 206.957031 171.570312 C 206.957031 168.964844 210.867188 168.964844 210.867188 171.570312 "/>
<path style="fill-rule:nonzero;fill:rgb(0%,0%,0%);fill-opacity:1;stroke-width:0.708661;stroke-linecap:round;stroke-linejoin:round;stroke:rgb(0%,0%,0%);stroke-opacity:1;stroke-miterlimit:10;" d="M 288.835938 193.5 C 288.835938 196.105469 284.925781 196.105469 284.925781 193.5 C 284.925781 190.894531 288.835938 190.894531 288.835938 193.5 "/>
<path style="fill-rule:nonzero;fill:rgb(0%,0%,0%);fill-opacity:1;stroke-width:0.708661;stroke-linecap:round;stroke-linejoin:round;stroke:rgb(0%,0%,0%);stroke-opacity:1;stroke-miterlimit:10;" d="M 288.835938 230.046875 C 288.835938 232.652344 284.925781 232.652344 284.925781 230.046875 C 284.925781 227.441406 288.835938 227.441406 288.835938 230.046875 "/>
<path style="fill-rule:nonzero;fill:rgb(0%,0%,0%);fill-opacity:1;stroke-width:0.708661;stroke-linecap:round;stroke-linejoin:round;stroke:rgb(0%,0%,0%);stroke-opacity:1;stroke-miterlimit:10;" d="M 288.835938 193.5 C 288.835938 196.105469 284.925781 196.105469 284.925781 193.5 C 284.925781 190.894531 288.835938 190.894531 288.835938 193.5 "/>
<path style="fill-rule:nonzero;fill:rgb(0%,0%,0%);fill-opacity:1;stroke-width:0.708661;stroke-linecap:round;stroke-linejoin:round;stroke:rgb(0%,0%,0%);stroke-opacity:1;stroke-miterlimit:10;" d="M 317.191406 215.429688 C 317.191406 218.035156 313.28125 218.035156 313.28125 215.429688 C 313.28125 212.820312 317.191406 212.820312 317.191406 215.429688 "/>
<path style="fill-rule:nonzero;fill:rgb(0%,0%,0%);fill-opacity:1;stroke-width:0.708661;stroke-linecap:round;stroke-linejoin:round;stroke:rgb(0%,0%,0%);stroke-opacity:1;stroke-miterlimit:10;" d="M 338.453125 215.429688 C 338.453125 218.035156 334.546875 218.035156 334.546875 215.429688 C 334.546875 212.820312 338.453125 212.820312 338.453125 215.429688 "/>
<path style="fill-rule:nonzero;fill:rgb(0%,0%,0%);fill-opacity:1;stroke-width:0.708661;stroke-linecap:round;stroke-linejoin:round;stroke:rgb(0%,0%,0%);stroke-opacity:1;stroke-miterlimit:10;" d="M 317.191406 149.644531 C 317.191406 152.25 313.28125 152.25 313.28125 149.644531 C 313.28125 147.035156 317.191406 147.035156 317.191406 149.644531 "/>
<path style="fill-rule:nonzero;fill:rgb(0%,0%,0%);fill-opacity:1;stroke-width:0.708661;stroke-linecap:round;stroke-linejoin:round;stroke:rgb(0%,0%,0%);stroke-opacity:1;stroke-miterlimit:10;" d="M 317.191406 171.570312 C 317.191406 174.175781 313.28125 174.175781 313.28125 171.570312 C 313.28125 168.964844 317.191406 168.964844 317.191406 171.570312 "/>
<path style="fill-rule:nonzero;fill:rgb(0%,0%,0%);fill-opacity:1;stroke-width:0.708661;stroke-linecap:round;stroke-linejoin:round;stroke:rgb(0%,0%,0%);stroke-opacity:1;stroke-miterlimit:10;" d="M 352.632812 149.644531 C 352.632812 152.25 348.722656 152.25 348.722656 149.644531 C 348.722656 147.035156 352.632812 147.035156 352.632812 149.644531 "/>
<path style="fill-rule:nonzero;fill:rgb(0%,0%,0%);fill-opacity:1;stroke-width:0.708661;stroke-linecap:round;stroke-linejoin:round;stroke:rgb(0%,0%,0%);stroke-opacity:1;stroke-miterlimit:10;" d="M 352.632812 156.953125 C 352.632812 159.558594 348.722656 159.558594 348.722656 156.953125 C 348.722656 154.347656 352.632812 154.347656 352.632812 156.953125 "/>
<path style="fill-rule:nonzero;fill:rgb(0%,0%,0%);fill-opacity:1;stroke-width:0.708661;stroke-linecap:round;stroke-linejoin:round;stroke:rgb(0%,0%,0%);stroke-opacity:1;stroke-miterlimit:10;" d="M 409.335938 164.261719 C 409.335938 166.867188 405.425781 166.867188 405.425781 164.261719 C 405.425781 161.65625 409.335938 161.65625 409.335938 164.261719 "/>
<path style="fill-rule:nonzero;fill:rgb(0%,0%,0%);fill-opacity:1;stroke-width:0.708661;stroke-linecap:round;stroke-linejoin:round;stroke:rgb(0%,0%,0%);stroke-opacity:1;stroke-miterlimit:10;" d="M 288.835938 200.808594 C 288.835938 203.414062 284.925781 203.414062 284.925781 200.808594 C 284.925781 198.203125 288.835938 198.203125 288.835938 200.808594 "/>
<path style="fill-rule:nonzero;fill:rgb(0%,0%,0%);fill-opacity:1;stroke-width:0.708661;stroke-linecap:round;stroke-linejoin:round;stroke:rgb(0%,0%,0%);stroke-opacity:1;stroke-miterlimit:10;" d="M 288.835938 237.355469 C 288.835938 239.960938 284.925781 239.960938 284.925781 237.355469 C 284.925781 234.75 288.835938 234.75 288.835938 237.355469 "/>
<path style="fill-rule:nonzero;fill:rgb(0%,0%,0%);fill-opacity:1;stroke-width:0.708661;stroke-linecap:round;stroke-linejoin:round;stroke:rgb(0%,0%,0%);stroke-opacity:1;stroke-miterlimit:10;" d="M 317.191406 230.046875 C 317.191406 232.652344 313.28125 232.652344 313.28125 230.046875 C 313.28125 227.441406 317.191406 227.441406 317.191406 230.046875 "/>
<path style="fill-rule:nonzero;fill:rgb(0%,0%,0%);fill-opacity:1;stroke-width:0.708661;stroke-linecap:round;stroke-linejoin:round;stroke:rgb(0%,0%,0%);stroke-opacity:1;stroke-miterlimit:10;" d="M 373.894531 215.429688 C 373.894531 218.035156 369.988281 218.035156 369.988281 215.429688 C 369.988281 212.820312 373.894531 212.820312 373.894531 215.429688 "/>
<path style="fill-rule:nonzero;fill:rgb(0%,0%,0%);fill-opacity:1;stroke-width:0.708661;stroke-linecap:round;stroke-linejoin:round;stroke:rgb(0%,0%,0%);stroke-opacity:1;stroke-miterlimit:10;" d="M 83.277344 142.332031 C 83.277344 144.941406 79.367188 144.941406 79.367188 142.332031 C 79.367188 139.726562 83.277344 139.726562 83.277344 142.332031 "/>
<path style="fill-rule:nonzero;fill:rgb(0%,0%,0%);fill-opacity:1;stroke-width:0.708661;stroke-linecap:round;stroke-linejoin:round;stroke:rgb(0%,0%,0%);stroke-opacity:1;stroke-miterlimit:10;" d="M 83.277344 120.40625 C 83.277344 123.011719 79.367188 123.011719 79.367188 120.40625 C 79.367188 117.796875 83.277344 117.796875 83.277344 120.40625 "/>
<path style="fill-rule:nonzero;fill:rgb(0%,0%,0%);fill-opacity:1;stroke-width:0.708661;stroke-linecap:round;stroke-linejoin:round;stroke:rgb(0%,0%,0%);stroke-opacity:1;stroke-miterlimit:10;" d="M 132.894531 149.644531 C 132.894531 152.25 128.988281 152.25 128.988281 149.644531 C 128.988281 147.035156 132.894531 147.035156 132.894531 149.644531 "/>
<path style="fill-rule:nonzero;fill:rgb(0%,0%,0%);fill-opacity:1;stroke-width:0.708661;stroke-linecap:round;stroke-linejoin:round;stroke:rgb(0%,0%,0%);stroke-opacity:1;stroke-miterlimit:10;" d="M 161.25 127.714844 C 161.25 130.320312 157.339844 130.320312 157.339844 127.714844 C 157.339844 125.109375 161.25 125.109375 161.25 127.714844 "/>
<path style="fill-rule:nonzero;fill:rgb(0%,0%,0%);fill-opacity:1;stroke-width:0.708661;stroke-linecap:round;stroke-linejoin:round;stroke:rgb(0%,0%,0%);stroke-opacity:1;stroke-miterlimit:10;" d="M 168.335938 149.644531 C 168.335938 152.25 164.425781 152.25 164.425781 149.644531 C 164.425781 147.035156 168.335938 147.035156 168.335938 149.644531 "/>
<path style="fill-rule:nonzero;fill:rgb(0%,0%,0%);fill-opacity:1;stroke-width:0.708661;stroke-linecap:round;stroke-linejoin:round;stroke:rgb(0%,0%,0%);stroke-opacity:1;stroke-miterlimit:10;" d="M 83.277344 164.261719 C 83.277344 166.867188 79.367188 166.867188 79.367188 164.261719 C 79.367188 161.65625 83.277344 161.65625 83.277344 164.261719 "/>
<path style="fill-rule:nonzero;fill:rgb(0%,0%,0%);fill-opacity:1;stroke-width:0.708661;stroke-linecap:round;stroke-linejoin:round;stroke:rgb(0%,0%,0%);stroke-opacity:1;stroke-miterlimit:10;" d="M 125.808594 164.261719 C 125.808594 166.867188 121.898438 166.867188 121.898438 164.261719 C 121.898438 161.65625 125.808594 161.65625 125.808594 164.261719 "/>
<path style="fill-rule:nonzero;fill:rgb(0%,0%,0%);fill-opacity:1;stroke-width:0.708661;stroke-linecap:round;stroke-linejoin:round;stroke:rgb(0%,0%,0%);stroke-opacity:1;stroke-miterlimit:10;" d="M 147.074219 178.878906 C 147.074219 181.488281 143.164062 181.488281 143.164062 178.878906 C 143.164062 176.273438 147.074219 176.273438 147.074219 178.878906 "/>
<path style="fill-rule:nonzero;fill:rgb(0%,0%,0%);fill-opacity:1;stroke-width:0.708661;stroke-linecap:round;stroke-linejoin:round;stroke:rgb(0%,0%,0%);stroke-opacity:1;stroke-miterlimit:10;" d="M 147.074219 178.878906 C 147.074219 181.488281 143.164062 181.488281 143.164062 178.878906 C 143.164062 176.273438 147.074219 176.273438 147.074219 178.878906 "/>
<path style="fill-rule:nonzero;fill:rgb(0%,0%,0%);fill-opacity:1;stroke-width:0.708661;stroke-linecap:round;stroke-linejoin:round;stroke:rgb(0%,0%,0%);stroke-opacity:1;stroke-miterlimit:10;" d="M 147.074219 164.261719 C 147.074219 166.867188 143.164062 166.867188 143.164062 164.261719 C 143.164062 161.65625 147.074219 161.65625 147.074219 164.261719 "/>
<path style="fill-rule:nonzero;fill:rgb(0%,0%,0%);fill-opacity:1;stroke-width:0.708661;stroke-linecap:round;stroke-linejoin:round;stroke:rgb(0%,0%,0%);stroke-opacity:1;stroke-miterlimit:10;" d="M 147.074219 164.261719 C 147.074219 166.867188 143.164062 166.867188 143.164062 164.261719 C 143.164062 161.65625 147.074219 161.65625 147.074219 164.261719 "/>
<path style="fill-rule:nonzero;fill:rgb(0%,0%,0%);fill-opacity:1;stroke-width:0.708661;stroke-linecap:round;stroke-linejoin:round;stroke:rgb(0%,0%,0%);stroke-opacity:1;stroke-miterlimit:10;" d="M 147.074219 215.429688 C 147.074219 218.035156 143.164062 218.035156 143.164062 215.429688 C 143.164062 212.820312 147.074219 212.820312 147.074219 215.429688 "/>
<path style="fill-rule:nonzero;fill:rgb(0%,0%,0%);fill-opacity:1;stroke-width:0.708661;stroke-linecap:round;stroke-linejoin:round;stroke:rgb(0%,0%,0%);stroke-opacity:1;stroke-miterlimit:10;" d="M 182.511719 178.878906 C 182.511719 181.488281 178.605469 181.488281 178.605469 178.878906 C 178.605469 176.273438 182.511719 176.273438 182.511719 178.878906 "/>
<path style="fill-rule:nonzero;fill:rgb(0%,0%,0%);fill-opacity:1;stroke-width:0.708661;stroke-linecap:round;stroke-linejoin:round;stroke:rgb(0%,0%,0%);stroke-opacity:1;stroke-miterlimit:10;" d="M 182.511719 186.191406 C 182.511719 188.796875 178.605469 188.796875 178.605469 186.191406 C 178.605469 183.582031 182.511719 183.582031 182.511719 186.191406 "/>
<path style="fill-rule:nonzero;fill:rgb(0%,0%,0%);fill-opacity:1;stroke-width:0.708661;stroke-linecap:round;stroke-linejoin:round;stroke:rgb(0%,0%,0%);stroke-opacity:1;stroke-miterlimit:10;" d="M 182.511719 171.570312 C 182.511719 174.175781 178.605469 174.175781 178.605469 171.570312 C 178.605469 168.964844 182.511719 168.964844 182.511719 171.570312 "/>
<path style="fill-rule:nonzero;fill:rgb(0%,0%,0%);fill-opacity:1;stroke-width:0.708661;stroke-linecap:round;stroke-linejoin:round;stroke:rgb(0%,0%,0%);stroke-opacity:1;stroke-miterlimit:10;" d="M 196.691406 171.570312 C 196.691406 174.175781 192.78125 174.175781 192.78125 171.570312 C 192.78125 168.964844 196.691406 168.964844 196.691406 171.570312 "/>
<path style="fill-rule:nonzero;fill:rgb(0%,0%,0%);fill-opacity:1;stroke-width:0.708661;stroke-linecap:round;stroke-linejoin:round;stroke:rgb(0%,0%,0%);stroke-opacity:1;stroke-miterlimit:10;" d="M 175.425781 200.808594 C 175.425781 203.414062 171.515625 203.414062 171.515625 200.808594 C 171.515625 198.203125 175.425781 198.203125 175.425781 200.808594 "/>
<path style="fill-rule:nonzero;fill:rgb(0%,0%,0%);fill-opacity:1;stroke-width:0.708661;stroke-linecap:round;stroke-linejoin:round;stroke:rgb(0%,0%,0%);stroke-opacity:1;stroke-miterlimit:10;" d="M 175.425781 208.117188 C 175.425781 210.726562 171.515625 210.726562 171.515625 208.117188 C 171.515625 205.511719 175.425781 205.511719 175.425781 208.117188 "/>
<path style="fill-rule:nonzero;fill:rgb(0%,0%,0%);fill-opacity:1;stroke-width:0.708661;stroke-linecap:round;stroke-linejoin:round;stroke:rgb(0%,0%,0%);stroke-opacity:1;stroke-miterlimit:10;" d="M 189.601562 215.429688 C 189.601562 218.035156 185.691406 218.035156 185.691406 215.429688 C 185.691406 212.820312 189.601562 212.820312 189.601562 215.429688 "/>
<path style="fill-rule:nonzero;fill:rgb(0%,0%,0%);fill-opacity:1;stroke-width:0.708661;stroke-linecap:round;stroke-linejoin:round;stroke:rgb(0%,0%,0%);stroke-opacity:1;stroke-miterlimit:10;" d="M 189.601562 215.429688 C 189.601562 218.035156 185.691406 218.035156 185.691406 215.429688 C 185.691406 212.820312 189.601562 212.820312 189.601562 215.429688 "/>
<path style="fill-rule:nonzero;fill:rgb(0%,0%,0%);fill-opacity:1;stroke-width:0.708661;stroke-linecap:round;stroke-linejoin:round;stroke:rgb(0%,0%,0%);stroke-opacity:1;stroke-miterlimit:10;" d="M 246.308594 200.808594 C 246.308594 203.414062 242.398438 203.414062 242.398438 200.808594 C 242.398438 198.203125 246.308594 198.203125 246.308594 200.808594 "/>
<path style="fill-rule:nonzero;fill:rgb(0%,0%,0%);fill-opacity:1;stroke-width:0.708661;stroke-linecap:round;stroke-linejoin:round;stroke:rgb(0%,0%,0%);stroke-opacity:1;stroke-miterlimit:10;" d="M 246.308594 200.808594 C 246.308594 203.414062 242.398438 203.414062 242.398438 200.808594 C 242.398438 198.203125 246.308594 198.203125 246.308594 200.808594 "/>
<path style="fill-rule:nonzero;fill:rgb(0%,0%,0%);fill-opacity:1;stroke-width:0.708661;stroke-linecap:round;stroke-linejoin:round;stroke:rgb(0%,0%,0%);stroke-opacity:1;stroke-miterlimit:10;" d="M 246.308594 251.976562 C 246.308594 254.582031 242.398438 254.582031 242.398438 251.976562 C 242.398438 249.367188 246.308594 249.367188 246.308594 251.976562 "/>
<path style="fill-rule:nonzero;fill:rgb(0%,0%,0%);fill-opacity:1;stroke-width:0.708661;stroke-linecap:round;stroke-linejoin:round;stroke:rgb(0%,0%,0%);stroke-opacity:1;stroke-miterlimit:10;" d="M 281.75 215.429688 C 281.75 218.035156 277.839844 218.035156 277.839844 215.429688 C 277.839844 212.820312 281.75 212.820312 281.75 215.429688 "/>
<path style="fill-rule:nonzero;fill:rgb(0%,0%,0%);fill-opacity:1;stroke-width:0.708661;stroke-linecap:round;stroke-linejoin:round;stroke:rgb(0%,0%,0%);stroke-opacity:1;stroke-miterlimit:10;" d="M 281.75 230.046875 C 281.75 232.652344 277.839844 232.652344 277.839844 230.046875 C 277.839844 227.441406 281.75 227.441406 281.75 230.046875 "/>
<path style="fill-rule:nonzero;fill:rgb(0%,0%,0%);fill-opacity:1;stroke-width:0.708661;stroke-linecap:round;stroke-linejoin:round;stroke:rgb(0%,0%,0%);stroke-opacity:1;stroke-miterlimit:10;" d="M 189.601562 215.429688 C 189.601562 218.035156 185.691406 218.035156 185.691406 215.429688 C 185.691406 212.820312 189.601562 212.820312 189.601562 215.429688 "/>
<path style="fill-rule:nonzero;fill:rgb(0%,0%,0%);fill-opacity:1;stroke-width:0.708661;stroke-linecap:round;stroke-linejoin:round;stroke:rgb(0%,0%,0%);stroke-opacity:1;stroke-miterlimit:10;" d="M 246.308594 215.429688 C 246.308594 218.035156 242.398438 218.035156 242.398438 215.429688 C 242.398438 212.820312 246.308594 212.820312 246.308594 215.429688 "/>
<path style="fill-rule:nonzero;fill:rgb(0%,0%,0%);fill-opacity:1;stroke-width:0.708661;stroke-linecap:round;stroke-linejoin:round;stroke:rgb(0%,0%,0%);stroke-opacity:1;stroke-miterlimit:10;" d="M 246.308594 251.976562 C 246.308594 254.582031 242.398438 254.582031 242.398438 251.976562 C 242.398438 249.367188 246.308594 249.367188 246.308594 251.976562 "/>
<path style="fill-rule:nonzero;fill:rgb(0%,0%,0%);fill-opacity:1;stroke-width:0.708661;stroke-linecap:round;stroke-linejoin:round;stroke:rgb(0%,0%,0%);stroke-opacity:1;stroke-miterlimit:10;" d="M 246.308594 215.429688 C 246.308594 218.035156 242.398438 218.035156 242.398438 215.429688 C 242.398438 212.820312 246.308594 212.820312 246.308594 215.429688 "/>
<path style="fill-rule:nonzero;fill:rgb(0%,0%,0%);fill-opacity:1;stroke-width:0.708661;stroke-linecap:round;stroke-linejoin:round;stroke:rgb(0%,0%,0%);stroke-opacity:1;stroke-miterlimit:10;" d="M 281.75 222.738281 C 281.75 225.34375 277.839844 225.34375 277.839844 222.738281 C 277.839844 220.132812 281.75 220.132812 281.75 222.738281 "/>
<path style="fill-rule:nonzero;fill:rgb(0%,0%,0%);fill-opacity:1;stroke-width:0.708661;stroke-linecap:round;stroke-linejoin:round;stroke:rgb(0%,0%,0%);stroke-opacity:1;stroke-miterlimit:10;" d="M 317.191406 208.117188 C 317.191406 210.726562 313.28125 210.726562 313.28125 208.117188 C 313.28125 205.511719 317.191406 205.511719 317.191406 208.117188 "/>
<path style="fill-rule:nonzero;fill:rgb(0%,0%,0%);fill-opacity:1;stroke-width:0.708661;stroke-linecap:round;stroke-linejoin:round;stroke:rgb(0%,0%,0%);stroke-opacity:1;stroke-miterlimit:10;" d="M 331.367188 230.046875 C 331.367188 232.652344 327.457031 232.652344 327.457031 230.046875 C 327.457031 227.441406 331.367188 227.441406 331.367188 230.046875 "/>
<path style="fill-rule:nonzero;fill:rgb(0%,0%,0%);fill-opacity:1;stroke-width:0.708661;stroke-linecap:round;stroke-linejoin:round;stroke:rgb(0%,0%,0%);stroke-opacity:1;stroke-miterlimit:10;" d="M 246.308594 222.738281 C 246.308594 225.34375 242.398438 225.34375 242.398438 222.738281 C 242.398438 220.132812 246.308594 220.132812 246.308594 222.738281 "/>
<path style="fill-rule:nonzero;fill:rgb(0%,0%,0%);fill-opacity:1;stroke-width:0.708661;stroke-linecap:round;stroke-linejoin:round;stroke:rgb(0%,0%,0%);stroke-opacity:1;stroke-miterlimit:10;" d="M 246.308594 251.976562 C 246.308594 254.582031 242.398438 254.582031 242.398438 251.976562 C 242.398438 249.367188 246.308594 249.367188 246.308594 251.976562 "/>
<path style="fill-rule:nonzero;fill:rgb(0%,0%,0%);fill-opacity:1;stroke-width:0.708661;stroke-linecap:round;stroke-linejoin:round;stroke:rgb(0%,0%,0%);stroke-opacity:1;stroke-miterlimit:10;" d="M 246.308594 215.429688 C 246.308594 218.035156 242.398438 218.035156 242.398438 215.429688 C 242.398438 212.820312 246.308594 212.820312 246.308594 215.429688 "/>
<path style="fill-rule:nonzero;fill:rgb(0%,0%,0%);fill-opacity:1;stroke-width:0.708661;stroke-linecap:round;stroke-linejoin:round;stroke:rgb(0%,0%,0%);stroke-opacity:1;stroke-miterlimit:10;" d="M 246.308594 215.429688 C 246.308594 218.035156 242.398438 218.035156 242.398438 215.429688 C 242.398438 212.820312 246.308594 212.820312 246.308594 215.429688 "/>
<path style="fill-rule:nonzero;fill:rgb(0%,0%,0%);fill-opacity:1;stroke-width:0.708661;stroke-linecap:round;stroke-linejoin:round;stroke:rgb(0%,0%,0%);stroke-opacity:1;stroke-miterlimit:10;" d="M 246.308594 222.738281 C 246.308594 225.34375 242.398438 225.34375 242.398438 222.738281 C 242.398438 220.132812 246.308594 220.132812 246.308594 222.738281 "/>
<path style="fill-rule:nonzero;fill:rgb(0%,0%,0%);fill-opacity:1;stroke-width:0.708661;stroke-linecap:round;stroke-linejoin:round;stroke:rgb(0%,0%,0%);stroke-opacity:1;stroke-miterlimit:10;" d="M 246.308594 251.976562 C 246.308594 254.582031 242.398438 254.582031 242.398438 251.976562 C 242.398438 249.367188 246.308594 249.367188 246.308594 251.976562 "/>
<path style="fill-rule:nonzero;fill:rgb(0%,0%,0%);fill-opacity:1;stroke-width:0.708661;stroke-linecap:round;stroke-linejoin:round;stroke:rgb(0%,0%,0%);stroke-opacity:1;stroke-miterlimit:10;" d="M 281.75 230.046875 C 281.75 232.652344 277.839844 232.652344 277.839844 230.046875 C 277.839844 227.441406 281.75 227.441406 281.75 230.046875 "/>
<path style="fill-rule:nonzero;fill:rgb(0%,0%,0%);fill-opacity:1;stroke-width:0.708661;stroke-linecap:round;stroke-linejoin:round;stroke:rgb(0%,0%,0%);stroke-opacity:1;stroke-miterlimit:10;" d="M 281.75 222.738281 C 281.75 225.34375 277.839844 225.34375 277.839844 222.738281 C 277.839844 220.132812 281.75 220.132812 281.75 222.738281 "/>
<path style="fill-rule:nonzero;fill:rgb(0%,0%,0%);fill-opacity:1;stroke-width:0.708661;stroke-linecap:round;stroke-linejoin:round;stroke:rgb(0%,0%,0%);stroke-opacity:1;stroke-miterlimit:10;" d="M 317.191406 215.429688 C 317.191406 218.035156 313.28125 218.035156 313.28125 215.429688 C 313.28125 212.820312 317.191406 212.820312 317.191406 215.429688 "/>
<path style="fill-rule:nonzero;fill:rgb(0%,0%,0%);fill-opacity:1;stroke-width:0.708661;stroke-linecap:round;stroke-linejoin:round;stroke:rgb(0%,0%,0%);stroke-opacity:1;stroke-miterlimit:10;" d="M 331.367188 230.046875 C 331.367188 232.652344 327.457031 232.652344 327.457031 230.046875 C 327.457031 227.441406 331.367188 227.441406 331.367188 230.046875 "/>
<path style="fill-rule:nonzero;fill:rgb(0%,0%,0%);fill-opacity:1;stroke-width:0.708661;stroke-linecap:round;stroke-linejoin:round;stroke:rgb(0%,0%,0%);stroke-opacity:1;stroke-miterlimit:10;" d="M 239.21875 215.429688 C 239.21875 218.035156 235.308594 218.035156 235.308594 215.429688 C 235.308594 212.820312 239.21875 212.820312 239.21875 215.429688 "/>
<path style="fill-rule:nonzero;fill:rgb(0%,0%,0%);fill-opacity:1;stroke-width:0.708661;stroke-linecap:round;stroke-linejoin:round;stroke:rgb(0%,0%,0%);stroke-opacity:1;stroke-miterlimit:10;" d="M 295.925781 215.429688 C 295.925781 218.035156 292.015625 218.035156 292.015625 215.429688 C 292.015625 212.820312 295.925781 212.820312 295.925781 215.429688 "/>
<path style="fill-rule:nonzero;fill:rgb(0%,0%,0%);fill-opacity:1;stroke-width:0.708661;stroke-linecap:round;stroke-linejoin:round;stroke:rgb(0%,0%,0%);stroke-opacity:1;stroke-miterlimit:10;" d="M 295.925781 208.117188 C 295.925781 210.726562 292.015625 210.726562 292.015625 208.117188 C 292.015625 205.511719 295.925781 205.511719 295.925781 208.117188 "/>
<path style="fill-rule:nonzero;fill:rgb(0%,0%,0%);fill-opacity:1;stroke-width:0.708661;stroke-linecap:round;stroke-linejoin:round;stroke:rgb(0%,0%,0%);stroke-opacity:1;stroke-miterlimit:10;" d="M 196.691406 215.429688 C 196.691406 218.035156 192.78125 218.035156 192.78125 215.429688 C 192.78125 212.820312 196.691406 212.820312 196.691406 215.429688 "/>
<path style="fill-rule:nonzero;fill:rgb(0%,0%,0%);fill-opacity:1;stroke-width:0.708661;stroke-linecap:round;stroke-linejoin:round;stroke:rgb(0%,0%,0%);stroke-opacity:1;stroke-miterlimit:10;" d="M 196.691406 200.808594 C 196.691406 203.414062 192.78125 203.414062 192.78125 200.808594 C 192.78125 198.203125 196.691406 198.203125 196.691406 200.808594 "/>
<path style="fill-rule:nonzero;fill:rgb(0%,0%,0%);fill-opacity:1;stroke-width:0.708661;stroke-linecap:round;stroke-linejoin:round;stroke:rgb(0%,0%,0%);stroke-opacity:1;stroke-miterlimit:10;" d="M 196.691406 215.429688 C 196.691406 218.035156 192.78125 218.035156 192.78125 215.429688 C 192.78125 212.820312 196.691406 212.820312 196.691406 215.429688 "/>
<path style="fill-rule:nonzero;fill:rgb(0%,0%,0%);fill-opacity:1;stroke-width:0.708661;stroke-linecap:round;stroke-linejoin:round;stroke:rgb(0%,0%,0%);stroke-opacity:1;stroke-miterlimit:10;" d="M 196.691406 200.808594 C 196.691406 203.414062 192.78125 203.414062 192.78125 200.808594 C 192.78125 198.203125 196.691406 198.203125 196.691406 200.808594 "/>
<path style="fill-rule:nonzero;fill:rgb(0%,0%,0%);fill-opacity:1;stroke-width:0.708661;stroke-linecap:round;stroke-linejoin:round;stroke:rgb(0%,0%,0%);stroke-opacity:1;stroke-miterlimit:10;" d="M 239.21875 200.808594 C 239.21875 203.414062 235.308594 203.414062 235.308594 200.808594 C 235.308594 198.203125 239.21875 198.203125 239.21875 200.808594 "/>
<path style="fill-rule:nonzero;fill:rgb(0%,0%,0%);fill-opacity:1;stroke-width:0.708661;stroke-linecap:round;stroke-linejoin:round;stroke:rgb(0%,0%,0%);stroke-opacity:1;stroke-miterlimit:10;" d="M 267.574219 215.429688 C 267.574219 218.035156 263.664062 218.035156 263.664062 215.429688 C 263.664062 212.820312 267.574219 212.820312 267.574219 215.429688 "/>
<path style="fill-rule:nonzero;fill:rgb(0%,0%,0%);fill-opacity:1;stroke-width:0.708661;stroke-linecap:round;stroke-linejoin:round;stroke:rgb(0%,0%,0%);stroke-opacity:1;stroke-miterlimit:10;" d="M 210.867188 215.429688 C 210.867188 218.035156 206.957031 218.035156 206.957031 215.429688 C 206.957031 212.820312 210.867188 212.820312 210.867188 215.429688 "/>
<path style="fill-rule:nonzero;fill:rgb(0%,0%,0%);fill-opacity:1;stroke-width:0.708661;stroke-linecap:round;stroke-linejoin:round;stroke:rgb(0%,0%,0%);stroke-opacity:1;stroke-miterlimit:10;" d="M 210.867188 215.429688 C 210.867188 218.035156 206.957031 218.035156 206.957031 215.429688 C 206.957031 212.820312 210.867188 212.820312 210.867188 215.429688 "/>
<path style="fill-rule:nonzero;fill:rgb(0%,0%,0%);fill-opacity:1;stroke-width:0.708661;stroke-linecap:round;stroke-linejoin:round;stroke:rgb(0%,0%,0%);stroke-opacity:1;stroke-miterlimit:10;" d="M 239.21875 222.738281 C 239.21875 225.34375 235.308594 225.34375 235.308594 222.738281 C 235.308594 220.132812 239.21875 220.132812 239.21875 222.738281 "/>
<path style="fill-rule:nonzero;fill:rgb(0%,0%,0%);fill-opacity:1;stroke-width:0.708661;stroke-linecap:round;stroke-linejoin:round;stroke:rgb(0%,0%,0%);stroke-opacity:1;stroke-miterlimit:10;" d="M 239.21875 222.738281 C 239.21875 225.34375 235.308594 225.34375 235.308594 222.738281 C 235.308594 220.132812 239.21875 220.132812 239.21875 222.738281 "/>
<path style="fill-rule:nonzero;fill:rgb(0%,0%,0%);fill-opacity:1;stroke-width:0.708661;stroke-linecap:round;stroke-linejoin:round;stroke:rgb(0%,0%,0%);stroke-opacity:1;stroke-miterlimit:10;" d="M 239.21875 215.429688 C 239.21875 218.035156 235.308594 218.035156 235.308594 215.429688 C 235.308594 212.820312 239.21875 212.820312 239.21875 215.429688 "/>
<path style="fill-rule:nonzero;fill:rgb(0%,0%,0%);fill-opacity:1;stroke-width:0.708661;stroke-linecap:round;stroke-linejoin:round;stroke:rgb(0%,0%,0%);stroke-opacity:1;stroke-miterlimit:10;" d="M 295.925781 230.046875 C 295.925781 232.652344 292.015625 232.652344 292.015625 230.046875 C 292.015625 227.441406 295.925781 227.441406 295.925781 230.046875 "/>
<path style="fill-rule:nonzero;fill:rgb(0%,0%,0%);fill-opacity:1;stroke-width:0.708661;stroke-linecap:round;stroke-linejoin:round;stroke:rgb(0%,0%,0%);stroke-opacity:1;stroke-miterlimit:10;" d="M 295.925781 215.429688 C 295.925781 218.035156 292.015625 218.035156 292.015625 215.429688 C 292.015625 212.820312 295.925781 212.820312 295.925781 215.429688 "/>
<path style="fill-rule:nonzero;fill:rgb(0%,0%,0%);fill-opacity:1;stroke-width:0.708661;stroke-linecap:round;stroke-linejoin:round;stroke:rgb(0%,0%,0%);stroke-opacity:1;stroke-miterlimit:10;" d="M 182.511719 149.644531 C 182.511719 152.25 178.605469 152.25 178.605469 149.644531 C 178.605469 147.035156 182.511719 147.035156 182.511719 149.644531 "/>
<path style="fill-rule:nonzero;fill:rgb(0%,0%,0%);fill-opacity:1;stroke-width:0.708661;stroke-linecap:round;stroke-linejoin:round;stroke:rgb(0%,0%,0%);stroke-opacity:1;stroke-miterlimit:10;" d="M 182.511719 156.953125 C 182.511719 159.558594 178.605469 159.558594 178.605469 156.953125 C 178.605469 154.347656 182.511719 154.347656 182.511719 156.953125 "/>
<path style="fill-rule:nonzero;fill:rgb(0%,0%,0%);fill-opacity:1;stroke-width:0.708661;stroke-linecap:round;stroke-linejoin:round;stroke:rgb(0%,0%,0%);stroke-opacity:1;stroke-miterlimit:10;" d="M 196.691406 149.644531 C 196.691406 152.25 192.78125 152.25 192.78125 149.644531 C 192.78125 147.035156 196.691406 147.035156 196.691406 149.644531 "/>
<path style="fill-rule:nonzero;fill:rgb(0%,0%,0%);fill-opacity:1;stroke-width:0.708661;stroke-linecap:round;stroke-linejoin:round;stroke:rgb(0%,0%,0%);stroke-opacity:1;stroke-miterlimit:10;" d="M 196.691406 164.261719 C 196.691406 166.867188 192.78125 166.867188 192.78125 164.261719 C 192.78125 161.65625 196.691406 161.65625 196.691406 164.261719 "/>
<path style="fill-rule:nonzero;fill:rgb(0%,0%,0%);fill-opacity:1;stroke-width:0.708661;stroke-linecap:round;stroke-linejoin:round;stroke:rgb(0%,0%,0%);stroke-opacity:1;stroke-miterlimit:10;" d="M 239.21875 186.191406 C 239.21875 188.796875 235.308594 188.796875 235.308594 186.191406 C 235.308594 183.582031 239.21875 183.582031 239.21875 186.191406 "/>
<path style="fill-rule:nonzero;fill:rgb(0%,0%,0%);fill-opacity:1;stroke-width:0.708661;stroke-linecap:round;stroke-linejoin:round;stroke:rgb(0%,0%,0%);stroke-opacity:1;stroke-miterlimit:10;" d="M 239.21875 178.878906 C 239.21875 181.488281 235.308594 181.488281 235.308594 178.878906 C 235.308594 176.273438 239.21875 176.273438 239.21875 178.878906 "/>
<path style="fill-rule:nonzero;fill:rgb(0%,0%,0%);fill-opacity:1;stroke-width:0.708661;stroke-linecap:round;stroke-linejoin:round;stroke:rgb(0%,0%,0%);stroke-opacity:1;stroke-miterlimit:10;" d="M 239.21875 171.570312 C 239.21875 174.175781 235.308594 174.175781 235.308594 171.570312 C 235.308594 168.964844 239.21875 168.964844 239.21875 171.570312 "/>
<path style="fill-rule:nonzero;fill:rgb(0%,0%,0%);fill-opacity:1;stroke-width:0.708661;stroke-linecap:round;stroke-linejoin:round;stroke:rgb(0%,0%,0%);stroke-opacity:1;stroke-miterlimit:10;" d="M 239.21875 178.878906 C 239.21875 181.488281 235.308594 181.488281 235.308594 178.878906 C 235.308594 176.273438 239.21875 176.273438 239.21875 178.878906 "/>
<path style="fill-rule:nonzero;fill:rgb(0%,0%,0%);fill-opacity:1;stroke-width:0.708661;stroke-linecap:round;stroke-linejoin:round;stroke:rgb(0%,0%,0%);stroke-opacity:1;stroke-miterlimit:10;" d="M 295.925781 193.5 C 295.925781 196.105469 292.015625 196.105469 292.015625 193.5 C 292.015625 190.894531 295.925781 190.894531 295.925781 193.5 "/>
<path style="fill-rule:nonzero;fill:rgb(0%,0%,0%);fill-opacity:1;stroke-width:0.708661;stroke-linecap:round;stroke-linejoin:round;stroke:rgb(0%,0%,0%);stroke-opacity:1;stroke-miterlimit:10;" d="M 26.574219 98.476562 C 26.574219 101.082031 22.664062 101.082031 22.664062 98.476562 C 22.664062 95.871094 26.574219 95.871094 26.574219 98.476562 "/>
<path style="fill-rule:nonzero;fill:rgb(0%,0%,0%);fill-opacity:1;stroke-width:0.708661;stroke-linecap:round;stroke-linejoin:round;stroke:rgb(0%,0%,0%);stroke-opacity:1;stroke-miterlimit:10;" d="M 26.574219 105.785156 C 26.574219 108.390625 22.664062 108.390625 22.664062 105.785156 C 22.664062 103.179688 26.574219 103.179688 26.574219 105.785156 "/>
<path style="fill-rule:nonzero;fill:rgb(0%,0%,0%);fill-opacity:1;stroke-width:0.708661;stroke-linecap:round;stroke-linejoin:round;stroke:rgb(0%,0%,0%);stroke-opacity:1;stroke-miterlimit:10;" d="M 26.574219 105.785156 C 26.574219 108.390625 22.664062 108.390625 22.664062 105.785156 C 22.664062 103.179688 26.574219 103.179688 26.574219 105.785156 "/>
<path style="fill-rule:nonzero;fill:rgb(0%,0%,0%);fill-opacity:1;stroke-width:0.708661;stroke-linecap:round;stroke-linejoin:round;stroke:rgb(0%,0%,0%);stroke-opacity:1;stroke-miterlimit:10;" d="M 26.574219 127.714844 C 26.574219 130.320312 22.664062 130.320312 22.664062 127.714844 C 22.664062 125.109375 26.574219 125.109375 26.574219 127.714844 "/>
<path style="fill-rule:nonzero;fill:rgb(0%,0%,0%);fill-opacity:1;stroke-width:0.708661;stroke-linecap:round;stroke-linejoin:round;stroke:rgb(0%,0%,0%);stroke-opacity:1;stroke-miterlimit:10;" d="M 26.574219 105.785156 C 26.574219 108.390625 22.664062 108.390625 22.664062 105.785156 C 22.664062 103.179688 26.574219 103.179688 26.574219 105.785156 "/>
<path style="fill-rule:nonzero;fill:rgb(0%,0%,0%);fill-opacity:1;stroke-width:0.708661;stroke-linecap:round;stroke-linejoin:round;stroke:rgb(0%,0%,0%);stroke-opacity:1;stroke-miterlimit:10;" d="M 40.75 91.167969 C 40.75 93.773438 36.839844 93.773438 36.839844 91.167969 C 36.839844 88.558594 40.75 88.558594 40.75 91.167969 "/>
<path style="fill-rule:nonzero;fill:rgb(0%,0%,0%);fill-opacity:1;stroke-width:0.708661;stroke-linecap:round;stroke-linejoin:round;stroke:rgb(0%,0%,0%);stroke-opacity:1;stroke-miterlimit:10;" d="M 40.75 76.546875 C 40.75 79.15625 36.839844 79.15625 36.839844 76.546875 C 36.839844 73.941406 40.75 73.941406 40.75 76.546875 "/>
<path style="fill-rule:nonzero;fill:rgb(0%,0%,0%);fill-opacity:1;stroke-width:0.708661;stroke-linecap:round;stroke-linejoin:round;stroke:rgb(0%,0%,0%);stroke-opacity:1;stroke-miterlimit:10;" d="M 40.75 76.546875 C 40.75 79.15625 36.839844 79.15625 36.839844 76.546875 C 36.839844 73.941406 40.75 73.941406 40.75 76.546875 "/>
<path style="fill-rule:nonzero;fill:rgb(0%,0%,0%);fill-opacity:1;stroke-width:0.708661;stroke-linecap:round;stroke-linejoin:round;stroke:rgb(0%,0%,0%);stroke-opacity:1;stroke-miterlimit:10;" d="M 54.925781 127.714844 C 54.925781 130.320312 51.015625 130.320312 51.015625 127.714844 C 51.015625 125.109375 54.925781 125.109375 54.925781 127.714844 "/>
<path style="fill-rule:nonzero;fill:rgb(0%,0%,0%);fill-opacity:1;stroke-width:0.708661;stroke-linecap:round;stroke-linejoin:round;stroke:rgb(0%,0%,0%);stroke-opacity:1;stroke-miterlimit:10;" d="M 83.277344 149.644531 C 83.277344 152.25 79.367188 152.25 79.367188 149.644531 C 79.367188 147.035156 83.277344 147.035156 83.277344 149.644531 "/>
<path style="fill-rule:nonzero;fill:rgb(0%,0%,0%);fill-opacity:1;stroke-width:0.708661;stroke-linecap:round;stroke-linejoin:round;stroke:rgb(0%,0%,0%);stroke-opacity:1;stroke-miterlimit:10;" d="M 83.277344 142.332031 C 83.277344 144.941406 79.367188 144.941406 79.367188 142.332031 C 79.367188 139.726562 83.277344 139.726562 83.277344 142.332031 "/>
<path style="fill-rule:nonzero;fill:rgb(0%,0%,0%);fill-opacity:1;stroke-width:0.708661;stroke-linecap:round;stroke-linejoin:round;stroke:rgb(0%,0%,0%);stroke-opacity:1;stroke-miterlimit:10;" d="M 83.277344 120.40625 C 83.277344 123.011719 79.367188 123.011719 79.367188 120.40625 C 79.367188 117.796875 83.277344 117.796875 83.277344 120.40625 "/>
<path style="fill-rule:nonzero;fill:rgb(0%,0%,0%);fill-opacity:1;stroke-width:0.708661;stroke-linecap:round;stroke-linejoin:round;stroke:rgb(0%,0%,0%);stroke-opacity:1;stroke-miterlimit:10;" d="M 83.277344 113.09375 C 83.277344 115.703125 79.367188 115.703125 79.367188 113.09375 C 79.367188 110.488281 83.277344 110.488281 83.277344 113.09375 "/>
<path style="fill-rule:nonzero;fill:rgb(0%,0%,0%);fill-opacity:1;stroke-width:0.708661;stroke-linecap:round;stroke-linejoin:round;stroke:rgb(0%,0%,0%);stroke-opacity:1;stroke-miterlimit:10;" d="M 90.367188 149.644531 C 90.367188 152.25 86.457031 152.25 86.457031 149.644531 C 86.457031 147.035156 90.367188 147.035156 90.367188 149.644531 "/>
<path style="fill-rule:nonzero;fill:rgb(0%,0%,0%);fill-opacity:1;stroke-width:0.708661;stroke-linecap:round;stroke-linejoin:round;stroke:rgb(0%,0%,0%);stroke-opacity:1;stroke-miterlimit:10;" d="M 90.367188 149.644531 C 90.367188 152.25 86.457031 152.25 86.457031 149.644531 C 86.457031 147.035156 90.367188 147.035156 90.367188 149.644531 "/>
<path style="fill-rule:nonzero;fill:rgb(0%,0%,0%);fill-opacity:1;stroke-width:0.708661;stroke-linecap:round;stroke-linejoin:round;stroke:rgb(0%,0%,0%);stroke-opacity:1;stroke-miterlimit:10;" d="M 147.074219 135.023438 C 147.074219 137.628906 143.164062 137.628906 143.164062 135.023438 C 143.164062 132.417969 147.074219 132.417969 147.074219 135.023438 "/>
<path style="fill-rule:nonzero;fill:rgb(0%,0%,0%);fill-opacity:1;stroke-width:0.708661;stroke-linecap:round;stroke-linejoin:round;stroke:rgb(0%,0%,0%);stroke-opacity:1;stroke-miterlimit:10;" d="M 54.925781 149.644531 C 54.925781 152.25 51.015625 152.25 51.015625 149.644531 C 51.015625 147.035156 54.925781 147.035156 54.925781 149.644531 "/>
<path style="fill-rule:nonzero;fill:rgb(0%,0%,0%);fill-opacity:1;stroke-width:0.708661;stroke-linecap:round;stroke-linejoin:round;stroke:rgb(0%,0%,0%);stroke-opacity:1;stroke-miterlimit:10;" d="M 54.925781 127.714844 C 54.925781 130.320312 51.015625 130.320312 51.015625 127.714844 C 51.015625 125.109375 54.925781 125.109375 54.925781 127.714844 "/>
<path style="fill-rule:nonzero;fill:rgb(0%,0%,0%);fill-opacity:1;stroke-width:0.708661;stroke-linecap:round;stroke-linejoin:round;stroke:rgb(0%,0%,0%);stroke-opacity:1;stroke-miterlimit:10;" d="M 54.925781 135.023438 C 54.925781 137.628906 51.015625 137.628906 51.015625 135.023438 C 51.015625 132.417969 54.925781 132.417969 54.925781 135.023438 "/>
<path style="fill-rule:nonzero;fill:rgb(0%,0%,0%);fill-opacity:1;stroke-width:0.708661;stroke-linecap:round;stroke-linejoin:round;stroke:rgb(0%,0%,0%);stroke-opacity:1;stroke-miterlimit:10;" d="M 54.925781 142.332031 C 54.925781 144.941406 51.015625 144.941406 51.015625 142.332031 C 51.015625 139.726562 54.925781 139.726562 54.925781 142.332031 "/>
<path style="fill-rule:nonzero;fill:rgb(0%,0%,0%);fill-opacity:1;stroke-width:0.708661;stroke-linecap:round;stroke-linejoin:round;stroke:rgb(0%,0%,0%);stroke-opacity:1;stroke-miterlimit:10;" d="M 104.542969 164.261719 C 104.542969 166.867188 100.632812 166.867188 100.632812 164.261719 C 100.632812 161.65625 104.542969 161.65625 104.542969 164.261719 "/>
<path style="fill-rule:nonzero;fill:rgb(0%,0%,0%);fill-opacity:1;stroke-width:0.708661;stroke-linecap:round;stroke-linejoin:round;stroke:rgb(0%,0%,0%);stroke-opacity:1;stroke-miterlimit:10;" d="M 104.542969 164.261719 C 104.542969 166.867188 100.632812 166.867188 100.632812 164.261719 C 100.632812 161.65625 104.542969 161.65625 104.542969 164.261719 "/>
<path style="fill-rule:nonzero;fill:rgb(0%,0%,0%);fill-opacity:1;stroke-width:0.708661;stroke-linecap:round;stroke-linejoin:round;stroke:rgb(0%,0%,0%);stroke-opacity:1;stroke-miterlimit:10;" d="M 104.542969 164.261719 C 104.542969 166.867188 100.632812 166.867188 100.632812 164.261719 C 100.632812 161.65625 104.542969 161.65625 104.542969 164.261719 "/>
<path style="fill-rule:nonzero;fill:rgb(0%,0%,0%);fill-opacity:1;stroke-width:0.708661;stroke-linecap:round;stroke-linejoin:round;stroke:rgb(0%,0%,0%);stroke-opacity:1;stroke-miterlimit:10;" d="M 125.808594 178.878906 C 125.808594 181.488281 121.898438 181.488281 121.898438 178.878906 C 121.898438 176.273438 125.808594 176.273438 125.808594 178.878906 "/>
<path style="fill-rule:nonzero;fill:rgb(0%,0%,0%);fill-opacity:1;stroke-width:0.708661;stroke-linecap:round;stroke-linejoin:round;stroke:rgb(0%,0%,0%);stroke-opacity:1;stroke-miterlimit:10;" d="M 175.425781 200.808594 C 175.425781 203.414062 171.515625 203.414062 171.515625 200.808594 C 171.515625 198.203125 175.425781 198.203125 175.425781 200.808594 "/>
<path style="fill-rule:nonzero;fill:rgb(0%,0%,0%);fill-opacity:1;stroke-width:0.708661;stroke-linecap:round;stroke-linejoin:round;stroke:rgb(0%,0%,0%);stroke-opacity:1;stroke-miterlimit:10;" d="M 196.691406 193.5 C 196.691406 196.105469 192.78125 196.105469 192.78125 193.5 C 192.78125 190.894531 196.691406 190.894531 196.691406 193.5 "/>
<path style="fill-rule:nonzero;fill:rgb(0%,0%,0%);fill-opacity:1;stroke-width:0.708661;stroke-linecap:round;stroke-linejoin:round;stroke:rgb(0%,0%,0%);stroke-opacity:1;stroke-miterlimit:10;" d="M 246.308594 215.429688 C 246.308594 218.035156 242.398438 218.035156 242.398438 215.429688 C 242.398438 212.820312 246.308594 212.820312 246.308594 215.429688 "/>
<path style="fill-rule:nonzero;fill:rgb(0%,0%,0%);fill-opacity:1;stroke-width:0.708661;stroke-linecap:round;stroke-linejoin:round;stroke:rgb(0%,0%,0%);stroke-opacity:1;stroke-miterlimit:10;" d="M 246.308594 251.976562 C 246.308594 254.582031 242.398438 254.582031 242.398438 251.976562 C 242.398438 249.367188 246.308594 249.367188 246.308594 251.976562 "/>
<path style="fill-rule:nonzero;fill:rgb(0%,0%,0%);fill-opacity:1;stroke-width:0.708661;stroke-linecap:round;stroke-linejoin:round;stroke:rgb(0%,0%,0%);stroke-opacity:1;stroke-miterlimit:10;" d="M 246.308594 200.808594 C 246.308594 203.414062 242.398438 203.414062 242.398438 200.808594 C 242.398438 198.203125 246.308594 198.203125 246.308594 200.808594 "/>
<path style="fill-rule:nonzero;fill:rgb(0%,0%,0%);fill-opacity:1;stroke-width:0.708661;stroke-linecap:round;stroke-linejoin:round;stroke:rgb(0%,0%,0%);stroke-opacity:1;stroke-miterlimit:10;" d="M 317.191406 208.117188 C 317.191406 210.726562 313.28125 210.726562 313.28125 208.117188 C 313.28125 205.511719 317.191406 205.511719 317.191406 208.117188 "/>
<path style="fill-rule:nonzero;fill:rgb(0%,0%,0%);fill-opacity:1;stroke-width:0.708661;stroke-linecap:round;stroke-linejoin:round;stroke:rgb(0%,0%,0%);stroke-opacity:1;stroke-miterlimit:10;" d="M 345.542969 237.355469 C 345.542969 239.960938 341.632812 239.960938 341.632812 237.355469 C 341.632812 234.75 345.542969 234.75 345.542969 237.355469 "/>
<path style="fill-rule:nonzero;fill:rgb(0%,0%,0%);fill-opacity:1;stroke-width:0.708661;stroke-linecap:round;stroke-linejoin:round;stroke:rgb(0%,0%,0%);stroke-opacity:1;stroke-miterlimit:10;" d="M 196.691406 230.046875 C 196.691406 232.652344 192.78125 232.652344 192.78125 230.046875 C 192.78125 227.441406 196.691406 227.441406 196.691406 230.046875 "/>
<path style="fill-rule:nonzero;fill:rgb(0%,0%,0%);fill-opacity:1;stroke-width:0.708661;stroke-linecap:round;stroke-linejoin:round;stroke:rgb(0%,0%,0%);stroke-opacity:1;stroke-miterlimit:10;" d="M 210.867188 208.117188 C 210.867188 210.726562 206.957031 210.726562 206.957031 208.117188 C 206.957031 205.511719 210.867188 205.511719 210.867188 208.117188 "/>
<path style="fill-rule:nonzero;fill:rgb(0%,0%,0%);fill-opacity:1;stroke-width:0.708661;stroke-linecap:round;stroke-linejoin:round;stroke:rgb(0%,0%,0%);stroke-opacity:1;stroke-miterlimit:10;" d="M 225.042969 208.117188 C 225.042969 210.726562 221.132812 210.726562 221.132812 208.117188 C 221.132812 205.511719 225.042969 205.511719 225.042969 208.117188 "/>
<path style="fill-rule:nonzero;fill:rgb(0%,0%,0%);fill-opacity:1;stroke-width:0.708661;stroke-linecap:round;stroke-linejoin:round;stroke:rgb(0%,0%,0%);stroke-opacity:1;stroke-miterlimit:10;" d="M 239.21875 230.046875 C 239.21875 232.652344 235.308594 232.652344 235.308594 230.046875 C 235.308594 227.441406 239.21875 227.441406 239.21875 230.046875 "/>
<path style="fill-rule:nonzero;fill:rgb(0%,0%,0%);fill-opacity:1;stroke-width:0.708661;stroke-linecap:round;stroke-linejoin:round;stroke:rgb(0%,0%,0%);stroke-opacity:1;stroke-miterlimit:10;" d="M 295.925781 215.429688 C 295.925781 218.035156 292.015625 218.035156 292.015625 215.429688 C 292.015625 212.820312 295.925781 212.820312 295.925781 215.429688 "/>
<path style="fill-rule:nonzero;fill:rgb(0%,0%,0%);fill-opacity:1;stroke-width:0.708661;stroke-linecap:round;stroke-linejoin:round;stroke:rgb(0%,0%,0%);stroke-opacity:1;stroke-miterlimit:10;" d="M 295.925781 222.738281 C 295.925781 225.34375 292.015625 225.34375 292.015625 222.738281 C 292.015625 220.132812 295.925781 220.132812 295.925781 222.738281 "/>
<path style="fill-rule:nonzero;fill:rgb(0%,0%,0%);fill-opacity:1;stroke-width:0.708661;stroke-linecap:round;stroke-linejoin:round;stroke:rgb(0%,0%,0%);stroke-opacity:1;stroke-miterlimit:10;" d="M 295.925781 208.117188 C 295.925781 210.726562 292.015625 210.726562 292.015625 208.117188 C 292.015625 205.511719 295.925781 205.511719 295.925781 208.117188 "/>
<path style="fill-rule:nonzero;fill:rgb(0%,0%,0%);fill-opacity:1;stroke-width:0.708661;stroke-linecap:round;stroke-linejoin:round;stroke:rgb(0%,0%,0%);stroke-opacity:1;stroke-miterlimit:10;" d="M 196.691406 215.429688 C 196.691406 218.035156 192.78125 218.035156 192.78125 215.429688 C 192.78125 212.820312 196.691406 212.820312 196.691406 215.429688 "/>
<path style="fill-rule:nonzero;fill:rgb(0%,0%,0%);fill-opacity:1;stroke-width:0.708661;stroke-linecap:round;stroke-linejoin:round;stroke:rgb(0%,0%,0%);stroke-opacity:1;stroke-miterlimit:10;" d="M 196.691406 200.808594 C 196.691406 203.414062 192.78125 203.414062 192.78125 200.808594 C 192.78125 198.203125 196.691406 198.203125 196.691406 200.808594 "/>
<path style="fill-rule:nonzero;fill:rgb(0%,0%,0%);fill-opacity:1;stroke-width:0.708661;stroke-linecap:round;stroke-linejoin:round;stroke:rgb(0%,0%,0%);stroke-opacity:1;stroke-miterlimit:10;" d="M 239.21875 200.808594 C 239.21875 203.414062 235.308594 203.414062 235.308594 200.808594 C 235.308594 198.203125 239.21875 198.203125 239.21875 200.808594 "/>
<path style="fill-rule:nonzero;fill:rgb(0%,0%,0%);fill-opacity:1;stroke-width:0.708661;stroke-linecap:round;stroke-linejoin:round;stroke:rgb(0%,0%,0%);stroke-opacity:1;stroke-miterlimit:10;" d="M 267.574219 215.429688 C 267.574219 218.035156 263.664062 218.035156 263.664062 215.429688 C 263.664062 212.820312 267.574219 212.820312 267.574219 215.429688 "/>
<path style="fill-rule:nonzero;fill:rgb(0%,0%,0%);fill-opacity:1;stroke-width:0.708661;stroke-linecap:round;stroke-linejoin:round;stroke:rgb(0%,0%,0%);stroke-opacity:1;stroke-miterlimit:10;" d="M 83.277344 127.714844 C 83.277344 130.320312 79.367188 130.320312 79.367188 127.714844 C 79.367188 125.109375 83.277344 125.109375 83.277344 127.714844 "/>
<path style="fill-rule:nonzero;fill:rgb(0%,0%,0%);fill-opacity:1;stroke-width:0.708661;stroke-linecap:round;stroke-linejoin:round;stroke:rgb(0%,0%,0%);stroke-opacity:1;stroke-miterlimit:10;" d="M 83.277344 142.332031 C 83.277344 144.941406 79.367188 144.941406 79.367188 142.332031 C 79.367188 139.726562 83.277344 139.726562 83.277344 142.332031 "/>
<path style="fill-rule:nonzero;fill:rgb(0%,0%,0%);fill-opacity:1;stroke-width:0.708661;stroke-linecap:round;stroke-linejoin:round;stroke:rgb(0%,0%,0%);stroke-opacity:1;stroke-miterlimit:10;" d="M 90.367188 113.09375 C 90.367188 115.703125 86.457031 115.703125 86.457031 113.09375 C 86.457031 110.488281 90.367188 110.488281 90.367188 113.09375 "/>
<path style="fill-rule:nonzero;fill:rgb(0%,0%,0%);fill-opacity:1;stroke-width:0.708661;stroke-linecap:round;stroke-linejoin:round;stroke:rgb(0%,0%,0%);stroke-opacity:1;stroke-miterlimit:10;" d="M 90.367188 105.785156 C 90.367188 108.390625 86.457031 108.390625 86.457031 105.785156 C 86.457031 103.179688 90.367188 103.179688 90.367188 105.785156 "/>
<path style="fill-rule:nonzero;fill:rgb(0%,0%,0%);fill-opacity:1;stroke-width:0.708661;stroke-linecap:round;stroke-linejoin:round;stroke:rgb(0%,0%,0%);stroke-opacity:1;stroke-miterlimit:10;" d="M 161.25 142.332031 C 161.25 144.941406 157.339844 144.941406 157.339844 142.332031 C 157.339844 139.726562 161.25 139.726562 161.25 142.332031 "/>
<path style="fill-rule:nonzero;fill:rgb(0%,0%,0%);fill-opacity:1;stroke-width:0.708661;stroke-linecap:round;stroke-linejoin:round;stroke:rgb(0%,0%,0%);stroke-opacity:1;stroke-miterlimit:10;" d="M 161.25 149.644531 C 161.25 152.25 157.339844 152.25 157.339844 149.644531 C 157.339844 147.035156 161.25 147.035156 161.25 149.644531 "/>
<path style="fill-rule:nonzero;fill:rgb(0%,0%,0%);fill-opacity:1;stroke-width:0.708661;stroke-linecap:round;stroke-linejoin:round;stroke:rgb(0%,0%,0%);stroke-opacity:1;stroke-miterlimit:10;" d="M 125.808594 149.644531 C 125.808594 152.25 121.898438 152.25 121.898438 149.644531 C 121.898438 147.035156 125.808594 147.035156 125.808594 149.644531 "/>
<path style="fill-rule:nonzero;fill:rgb(0%,0%,0%);fill-opacity:1;stroke-width:0.708661;stroke-linecap:round;stroke-linejoin:round;stroke:rgb(0%,0%,0%);stroke-opacity:1;stroke-miterlimit:10;" d="M 125.808594 156.953125 C 125.808594 159.558594 121.898438 159.558594 121.898438 156.953125 C 121.898438 154.347656 125.808594 154.347656 125.808594 156.953125 "/>
<path style="fill-rule:nonzero;fill:rgb(0%,0%,0%);fill-opacity:1;stroke-width:0.708661;stroke-linecap:round;stroke-linejoin:round;stroke:rgb(0%,0%,0%);stroke-opacity:1;stroke-miterlimit:10;" d="M 161.25 156.953125 C 161.25 159.558594 157.339844 159.558594 157.339844 156.953125 C 157.339844 154.347656 161.25 154.347656 161.25 156.953125 "/>
<path style="fill-rule:nonzero;fill:rgb(0%,0%,0%);fill-opacity:1;stroke-width:0.708661;stroke-linecap:round;stroke-linejoin:round;stroke:rgb(0%,0%,0%);stroke-opacity:1;stroke-miterlimit:10;" d="M 147.074219 215.429688 C 147.074219 218.035156 143.164062 218.035156 143.164062 215.429688 C 143.164062 212.820312 147.074219 212.820312 147.074219 215.429688 "/>
<path style="fill-rule:nonzero;fill:rgb(0%,0%,0%);fill-opacity:1;stroke-width:0.708661;stroke-linecap:round;stroke-linejoin:round;stroke:rgb(0%,0%,0%);stroke-opacity:1;stroke-miterlimit:10;" d="M 147.074219 215.429688 C 147.074219 218.035156 143.164062 218.035156 143.164062 215.429688 C 143.164062 212.820312 147.074219 212.820312 147.074219 215.429688 "/>
<path style="fill-rule:nonzero;fill:rgb(0%,0%,0%);fill-opacity:1;stroke-width:0.708661;stroke-linecap:round;stroke-linejoin:round;stroke:rgb(0%,0%,0%);stroke-opacity:1;stroke-miterlimit:10;" d="M 196.691406 193.5 C 196.691406 196.105469 192.78125 196.105469 192.78125 193.5 C 192.78125 190.894531 196.691406 190.894531 196.691406 193.5 "/>
<path style="fill-rule:nonzero;fill:rgb(0%,0%,0%);fill-opacity:1;stroke-width:0.708661;stroke-linecap:round;stroke-linejoin:round;stroke:rgb(0%,0%,0%);stroke-opacity:1;stroke-miterlimit:10;" d="M 310.101562 208.117188 C 310.101562 210.726562 306.191406 210.726562 306.191406 208.117188 C 306.191406 205.511719 310.101562 205.511719 310.101562 208.117188 "/>
<path style="fill-rule:nonzero;fill:rgb(0%,0%,0%);fill-opacity:1;stroke-width:0.708661;stroke-linecap:round;stroke-linejoin:round;stroke:rgb(0%,0%,0%);stroke-opacity:1;stroke-miterlimit:10;" d="M 132.894531 149.644531 C 132.894531 152.25 128.988281 152.25 128.988281 149.644531 C 128.988281 147.035156 132.894531 147.035156 132.894531 149.644531 "/>
<path style="fill-rule:nonzero;fill:rgb(0%,0%,0%);fill-opacity:1;stroke-width:0.708661;stroke-linecap:round;stroke-linejoin:round;stroke:rgb(0%,0%,0%);stroke-opacity:1;stroke-miterlimit:10;" d="M 182.511719 149.644531 C 182.511719 152.25 178.605469 152.25 178.605469 149.644531 C 178.605469 147.035156 182.511719 147.035156 182.511719 149.644531 "/>
<path style="fill-rule:nonzero;fill:rgb(0%,0%,0%);fill-opacity:1;stroke-width:0.708661;stroke-linecap:round;stroke-linejoin:round;stroke:rgb(0%,0%,0%);stroke-opacity:1;stroke-miterlimit:10;" d="M 182.511719 142.332031 C 182.511719 144.941406 178.605469 144.941406 178.605469 142.332031 C 178.605469 139.726562 182.511719 139.726562 182.511719 142.332031 "/>
<path style="fill-rule:nonzero;fill:rgb(0%,0%,0%);fill-opacity:1;stroke-width:0.708661;stroke-linecap:round;stroke-linejoin:round;stroke:rgb(0%,0%,0%);stroke-opacity:1;stroke-miterlimit:10;" d="M 182.511719 135.023438 C 182.511719 137.628906 178.605469 137.628906 178.605469 135.023438 C 178.605469 132.417969 182.511719 132.417969 182.511719 135.023438 "/>
<path style="fill-rule:nonzero;fill:rgb(0%,0%,0%);fill-opacity:1;stroke-width:0.708661;stroke-linecap:round;stroke-linejoin:round;stroke:rgb(0%,0%,0%);stroke-opacity:1;stroke-miterlimit:10;" d="M 288.835938 156.953125 C 288.835938 159.558594 284.925781 159.558594 284.925781 156.953125 C 284.925781 154.347656 288.835938 154.347656 288.835938 156.953125 "/>
<path style="fill-rule:nonzero;fill:rgb(0%,0%,0%);fill-opacity:1;stroke-width:0.708661;stroke-linecap:round;stroke-linejoin:round;stroke:rgb(0%,0%,0%);stroke-opacity:1;stroke-miterlimit:10;" d="M 90.367188 156.953125 C 90.367188 159.558594 86.457031 159.558594 86.457031 156.953125 C 86.457031 154.347656 90.367188 154.347656 90.367188 156.953125 "/>
<path style="fill-rule:nonzero;fill:rgb(0%,0%,0%);fill-opacity:1;stroke-width:0.708661;stroke-linecap:round;stroke-linejoin:round;stroke:rgb(0%,0%,0%);stroke-opacity:1;stroke-miterlimit:10;" d="M 90.367188 164.261719 C 90.367188 166.867188 86.457031 166.867188 86.457031 164.261719 C 86.457031 161.65625 90.367188 161.65625 90.367188 164.261719 "/>
<path style="fill-rule:nonzero;fill:rgb(0%,0%,0%);fill-opacity:1;stroke-width:0.708661;stroke-linecap:round;stroke-linejoin:round;stroke:rgb(0%,0%,0%);stroke-opacity:1;stroke-miterlimit:10;" d="M 90.367188 142.332031 C 90.367188 144.941406 86.457031 144.941406 86.457031 142.332031 C 86.457031 139.726562 90.367188 139.726562 90.367188 142.332031 "/>
<path style="fill-rule:nonzero;fill:rgb(0%,0%,0%);fill-opacity:1;stroke-width:0.708661;stroke-linecap:round;stroke-linejoin:round;stroke:rgb(0%,0%,0%);stroke-opacity:1;stroke-miterlimit:10;" d="M 90.367188 156.953125 C 90.367188 159.558594 86.457031 159.558594 86.457031 156.953125 C 86.457031 154.347656 90.367188 154.347656 90.367188 156.953125 "/>
<path style="fill-rule:nonzero;fill:rgb(0%,0%,0%);fill-opacity:1;stroke-width:0.708661;stroke-linecap:round;stroke-linejoin:round;stroke:rgb(0%,0%,0%);stroke-opacity:1;stroke-miterlimit:10;" d="M 90.367188 149.644531 C 90.367188 152.25 86.457031 152.25 86.457031 149.644531 C 86.457031 147.035156 90.367188 147.035156 90.367188 149.644531 "/>
<path style="fill-rule:nonzero;fill:rgb(0%,0%,0%);fill-opacity:1;stroke-width:0.708661;stroke-linecap:round;stroke-linejoin:round;stroke:rgb(0%,0%,0%);stroke-opacity:1;stroke-miterlimit:10;" d="M 90.367188 171.570312 C 90.367188 174.175781 86.457031 174.175781 86.457031 171.570312 C 86.457031 168.964844 90.367188 168.964844 90.367188 171.570312 "/>
<path style="fill-rule:nonzero;fill:rgb(0%,0%,0%);fill-opacity:1;stroke-width:0.708661;stroke-linecap:round;stroke-linejoin:round;stroke:rgb(0%,0%,0%);stroke-opacity:1;stroke-miterlimit:10;" d="M 69.101562 149.644531 C 69.101562 152.25 65.191406 152.25 65.191406 149.644531 C 65.191406 147.035156 69.101562 147.035156 69.101562 149.644531 "/>
<path style="fill-rule:nonzero;fill:rgb(0%,0%,0%);fill-opacity:1;stroke-width:0.708661;stroke-linecap:round;stroke-linejoin:round;stroke:rgb(0%,0%,0%);stroke-opacity:1;stroke-miterlimit:10;" d="M 69.101562 149.644531 C 69.101562 152.25 65.191406 152.25 65.191406 149.644531 C 65.191406 147.035156 69.101562 147.035156 69.101562 149.644531 "/>
<path style="fill-rule:nonzero;fill:rgb(0%,0%,0%);fill-opacity:1;stroke-width:0.708661;stroke-linecap:round;stroke-linejoin:round;stroke:rgb(0%,0%,0%);stroke-opacity:1;stroke-miterlimit:10;" d="M 90.367188 149.644531 C 90.367188 152.25 86.457031 152.25 86.457031 149.644531 C 86.457031 147.035156 90.367188 147.035156 90.367188 149.644531 "/>
<path style="fill-rule:nonzero;fill:rgb(0%,0%,0%);fill-opacity:1;stroke-width:0.708661;stroke-linecap:round;stroke-linejoin:round;stroke:rgb(0%,0%,0%);stroke-opacity:1;stroke-miterlimit:10;" d="M 90.367188 149.644531 C 90.367188 152.25 86.457031 152.25 86.457031 149.644531 C 86.457031 147.035156 90.367188 147.035156 90.367188 149.644531 "/>
<path style="fill-rule:nonzero;fill:rgb(0%,0%,0%);fill-opacity:1;stroke-width:0.708661;stroke-linecap:round;stroke-linejoin:round;stroke:rgb(0%,0%,0%);stroke-opacity:1;stroke-miterlimit:10;" d="M 90.367188 156.953125 C 90.367188 159.558594 86.457031 159.558594 86.457031 156.953125 C 86.457031 154.347656 90.367188 154.347656 90.367188 156.953125 "/>
<path style="fill-rule:nonzero;fill:rgb(0%,0%,0%);fill-opacity:1;stroke-width:0.708661;stroke-linecap:round;stroke-linejoin:round;stroke:rgb(0%,0%,0%);stroke-opacity:1;stroke-miterlimit:10;" d="M 90.367188 142.332031 C 90.367188 144.941406 86.457031 144.941406 86.457031 142.332031 C 86.457031 139.726562 90.367188 139.726562 90.367188 142.332031 "/>
<path style="fill-rule:nonzero;fill:rgb(0%,0%,0%);fill-opacity:1;stroke-width:0.708661;stroke-linecap:round;stroke-linejoin:round;stroke:rgb(0%,0%,0%);stroke-opacity:1;stroke-miterlimit:10;" d="M 90.367188 156.953125 C 90.367188 159.558594 86.457031 159.558594 86.457031 156.953125 C 86.457031 154.347656 90.367188 154.347656 90.367188 156.953125 "/>
<path style="fill-rule:nonzero;fill:rgb(0%,0%,0%);fill-opacity:1;stroke-width:0.708661;stroke-linecap:round;stroke-linejoin:round;stroke:rgb(0%,0%,0%);stroke-opacity:1;stroke-miterlimit:10;" d="M 90.367188 142.332031 C 90.367188 144.941406 86.457031 144.941406 86.457031 142.332031 C 86.457031 139.726562 90.367188 139.726562 90.367188 142.332031 "/>
<path style="fill-rule:nonzero;fill:rgb(0%,0%,0%);fill-opacity:1;stroke-width:0.708661;stroke-linecap:round;stroke-linejoin:round;stroke:rgb(0%,0%,0%);stroke-opacity:1;stroke-miterlimit:10;" d="M 104.542969 193.5 C 104.542969 196.105469 100.632812 196.105469 100.632812 193.5 C 100.632812 190.894531 104.542969 190.894531 104.542969 193.5 "/>
<path style="fill-rule:nonzero;fill:rgb(0%,0%,0%);fill-opacity:1;stroke-width:0.708661;stroke-linecap:round;stroke-linejoin:round;stroke:rgb(0%,0%,0%);stroke-opacity:1;stroke-miterlimit:10;" d="M 104.542969 193.5 C 104.542969 196.105469 100.632812 196.105469 100.632812 193.5 C 100.632812 190.894531 104.542969 190.894531 104.542969 193.5 "/>
<path style="fill-rule:nonzero;fill:rgb(0%,0%,0%);fill-opacity:1;stroke-width:0.708661;stroke-linecap:round;stroke-linejoin:round;stroke:rgb(0%,0%,0%);stroke-opacity:1;stroke-miterlimit:10;" d="M 154.160156 200.808594 C 154.160156 203.414062 150.25 203.414062 150.25 200.808594 C 150.25 198.203125 154.160156 198.203125 154.160156 200.808594 "/>
<path style="fill-rule:nonzero;fill:rgb(0%,0%,0%);fill-opacity:1;stroke-width:0.708661;stroke-linecap:round;stroke-linejoin:round;stroke:rgb(0%,0%,0%);stroke-opacity:1;stroke-miterlimit:10;" d="M 154.160156 215.429688 C 154.160156 218.035156 150.25 218.035156 150.25 215.429688 C 150.25 212.820312 154.160156 212.820312 154.160156 215.429688 "/>
<path style="fill-rule:nonzero;fill:rgb(0%,0%,0%);fill-opacity:1;stroke-width:0.708661;stroke-linecap:round;stroke-linejoin:round;stroke:rgb(0%,0%,0%);stroke-opacity:1;stroke-miterlimit:10;" d="M 196.691406 193.5 C 196.691406 196.105469 192.78125 196.105469 192.78125 193.5 C 192.78125 190.894531 196.691406 190.894531 196.691406 193.5 "/>
<path style="fill-rule:nonzero;fill:rgb(0%,0%,0%);fill-opacity:1;stroke-width:0.708661;stroke-linecap:round;stroke-linejoin:round;stroke:rgb(0%,0%,0%);stroke-opacity:1;stroke-miterlimit:10;" d="M 246.308594 215.429688 C 246.308594 218.035156 242.398438 218.035156 242.398438 215.429688 C 242.398438 212.820312 246.308594 212.820312 246.308594 215.429688 "/>
<path style="fill-rule:nonzero;fill:rgb(0%,0%,0%);fill-opacity:1;stroke-width:0.708661;stroke-linecap:round;stroke-linejoin:round;stroke:rgb(0%,0%,0%);stroke-opacity:1;stroke-miterlimit:10;" d="M 69.101562 127.714844 C 69.101562 130.320312 65.191406 130.320312 65.191406 127.714844 C 65.191406 125.109375 69.101562 125.109375 69.101562 127.714844 "/>
<path style="fill-rule:nonzero;fill:rgb(0%,0%,0%);fill-opacity:1;stroke-width:0.708661;stroke-linecap:round;stroke-linejoin:round;stroke:rgb(0%,0%,0%);stroke-opacity:1;stroke-miterlimit:10;" d="M 69.101562 142.332031 C 69.101562 144.941406 65.191406 144.941406 65.191406 142.332031 C 65.191406 139.726562 69.101562 139.726562 69.101562 142.332031 "/>
<path style="fill-rule:nonzero;fill:rgb(0%,0%,0%);fill-opacity:1;stroke-width:0.708661;stroke-linecap:round;stroke-linejoin:round;stroke:rgb(0%,0%,0%);stroke-opacity:1;stroke-miterlimit:10;" d="M 83.277344 113.09375 C 83.277344 115.703125 79.367188 115.703125 79.367188 113.09375 C 79.367188 110.488281 83.277344 110.488281 83.277344 113.09375 "/>
<path style="fill-rule:nonzero;fill:rgb(0%,0%,0%);fill-opacity:1;stroke-width:0.708661;stroke-linecap:round;stroke-linejoin:round;stroke:rgb(0%,0%,0%);stroke-opacity:1;stroke-miterlimit:10;" d="M 83.277344 113.09375 C 83.277344 115.703125 79.367188 115.703125 79.367188 113.09375 C 79.367188 110.488281 83.277344 110.488281 83.277344 113.09375 "/>
<path style="fill-rule:nonzero;fill:rgb(0%,0%,0%);fill-opacity:1;stroke-width:0.708661;stroke-linecap:round;stroke-linejoin:round;stroke:rgb(0%,0%,0%);stroke-opacity:1;stroke-miterlimit:10;" d="M 125.808594 149.644531 C 125.808594 152.25 121.898438 152.25 121.898438 149.644531 C 121.898438 147.035156 125.808594 147.035156 125.808594 149.644531 "/>
<path style="fill-rule:nonzero;fill:rgb(0%,0%,0%);fill-opacity:1;stroke-width:0.708661;stroke-linecap:round;stroke-linejoin:round;stroke:rgb(0%,0%,0%);stroke-opacity:1;stroke-miterlimit:10;" d="M 125.808594 149.644531 C 125.808594 152.25 121.898438 152.25 121.898438 149.644531 C 121.898438 147.035156 125.808594 147.035156 125.808594 149.644531 "/>
<path style="fill-rule:nonzero;fill:rgb(0%,0%,0%);fill-opacity:1;stroke-width:0.708661;stroke-linecap:round;stroke-linejoin:round;stroke:rgb(0%,0%,0%);stroke-opacity:1;stroke-miterlimit:10;" d="M 161.25 135.023438 C 161.25 137.628906 157.339844 137.628906 157.339844 135.023438 C 157.339844 132.417969 161.25 132.417969 161.25 135.023438 "/>
<path style="fill-rule:nonzero;fill:rgb(0%,0%,0%);fill-opacity:1;stroke-width:0.708661;stroke-linecap:round;stroke-linejoin:round;stroke:rgb(0%,0%,0%);stroke-opacity:1;stroke-miterlimit:10;" d="M 69.101562 142.332031 C 69.101562 144.941406 65.191406 144.941406 65.191406 142.332031 C 65.191406 139.726562 69.101562 139.726562 69.101562 142.332031 "/>
<path style="fill-rule:nonzero;fill:rgb(0%,0%,0%);fill-opacity:1;stroke-width:0.708661;stroke-linecap:round;stroke-linejoin:round;stroke:rgb(0%,0%,0%);stroke-opacity:1;stroke-miterlimit:10;" d="M 69.101562 127.714844 C 69.101562 130.320312 65.191406 130.320312 65.191406 127.714844 C 65.191406 125.109375 69.101562 125.109375 69.101562 127.714844 "/>
<path style="fill-rule:nonzero;fill:rgb(0%,0%,0%);fill-opacity:1;stroke-width:0.708661;stroke-linecap:round;stroke-linejoin:round;stroke:rgb(0%,0%,0%);stroke-opacity:1;stroke-miterlimit:10;" d="M 83.277344 113.09375 C 83.277344 115.703125 79.367188 115.703125 79.367188 113.09375 C 79.367188 110.488281 83.277344 110.488281 83.277344 113.09375 "/>
<path style="fill-rule:nonzero;fill:rgb(0%,0%,0%);fill-opacity:1;stroke-width:0.708661;stroke-linecap:round;stroke-linejoin:round;stroke:rgb(0%,0%,0%);stroke-opacity:1;stroke-miterlimit:10;" d="M 83.277344 113.09375 C 83.277344 115.703125 79.367188 115.703125 79.367188 113.09375 C 79.367188 110.488281 83.277344 110.488281 83.277344 113.09375 "/>
<path style="fill-rule:nonzero;fill:rgb(0%,0%,0%);fill-opacity:1;stroke-width:0.708661;stroke-linecap:round;stroke-linejoin:round;stroke:rgb(0%,0%,0%);stroke-opacity:1;stroke-miterlimit:10;" d="M 125.808594 149.644531 C 125.808594 152.25 121.898438 152.25 121.898438 149.644531 C 121.898438 147.035156 125.808594 147.035156 125.808594 149.644531 "/>
<path style="fill-rule:nonzero;fill:rgb(0%,0%,0%);fill-opacity:1;stroke-width:0.708661;stroke-linecap:round;stroke-linejoin:round;stroke:rgb(0%,0%,0%);stroke-opacity:1;stroke-miterlimit:10;" d="M 125.808594 149.644531 C 125.808594 152.25 121.898438 152.25 121.898438 149.644531 C 121.898438 147.035156 125.808594 147.035156 125.808594 149.644531 "/>
<path style="fill-rule:nonzero;fill:rgb(0%,0%,0%);fill-opacity:1;stroke-width:0.708661;stroke-linecap:round;stroke-linejoin:round;stroke:rgb(0%,0%,0%);stroke-opacity:1;stroke-miterlimit:10;" d="M 147.074219 142.332031 C 147.074219 144.941406 143.164062 144.941406 143.164062 142.332031 C 143.164062 139.726562 147.074219 139.726562 147.074219 142.332031 "/>
<path style="fill-rule:nonzero;fill:rgb(0%,0%,0%);fill-opacity:1;stroke-width:0.708661;stroke-linecap:round;stroke-linejoin:round;stroke:rgb(0%,0%,0%);stroke-opacity:1;stroke-miterlimit:10;" d="M 40.75 120.40625 C 40.75 123.011719 36.839844 123.011719 36.839844 120.40625 C 36.839844 117.796875 40.75 117.796875 40.75 120.40625 "/>
<path style="fill-rule:nonzero;fill:rgb(0%,0%,0%);fill-opacity:1;stroke-width:0.708661;stroke-linecap:round;stroke-linejoin:round;stroke:rgb(0%,0%,0%);stroke-opacity:1;stroke-miterlimit:10;" d="M 40.75 98.476562 C 40.75 101.082031 36.839844 101.082031 36.839844 98.476562 C 36.839844 95.871094 40.75 95.871094 40.75 98.476562 "/>
<path style="fill-rule:nonzero;fill:rgb(0%,0%,0%);fill-opacity:1;stroke-width:0.708661;stroke-linecap:round;stroke-linejoin:round;stroke:rgb(0%,0%,0%);stroke-opacity:1;stroke-miterlimit:10;" d="M 40.75 83.859375 C 40.75 86.464844 36.839844 86.464844 36.839844 83.859375 C 36.839844 81.25 40.75 81.25 40.75 83.859375 "/>
<path style="fill-rule:nonzero;fill:rgb(0%,0%,0%);fill-opacity:1;stroke-width:0.708661;stroke-linecap:round;stroke-linejoin:round;stroke:rgb(0%,0%,0%);stroke-opacity:1;stroke-miterlimit:10;" d="M 40.75 69.238281 C 40.75 71.84375 36.839844 71.84375 36.839844 69.238281 C 36.839844 66.632812 40.75 66.632812 40.75 69.238281 "/>
<path style="fill-rule:nonzero;fill:rgb(0%,0%,0%);fill-opacity:1;stroke-width:0.708661;stroke-linecap:round;stroke-linejoin:round;stroke:rgb(0%,0%,0%);stroke-opacity:1;stroke-miterlimit:10;" d="M 40.75 83.859375 C 40.75 86.464844 36.839844 86.464844 36.839844 83.859375 C 36.839844 81.25 40.75 81.25 40.75 83.859375 "/>
<path style="fill-rule:nonzero;fill:rgb(0%,0%,0%);fill-opacity:1;stroke-width:0.708661;stroke-linecap:round;stroke-linejoin:round;stroke:rgb(0%,0%,0%);stroke-opacity:1;stroke-miterlimit:10;" d="M 246.308594 230.046875 C 246.308594 232.652344 242.398438 232.652344 242.398438 230.046875 C 242.398438 227.441406 246.308594 227.441406 246.308594 230.046875 "/>
<path style="fill-rule:nonzero;fill:rgb(0%,0%,0%);fill-opacity:1;stroke-width:0.708661;stroke-linecap:round;stroke-linejoin:round;stroke:rgb(0%,0%,0%);stroke-opacity:1;stroke-miterlimit:10;" d="M 317.191406 208.117188 C 317.191406 210.726562 313.28125 210.726562 313.28125 208.117188 C 313.28125 205.511719 317.191406 205.511719 317.191406 208.117188 "/>
<path style="fill-rule:nonzero;fill:rgb(0%,0%,0%);fill-opacity:1;stroke-width:0.708661;stroke-linecap:round;stroke-linejoin:round;stroke:rgb(0%,0%,0%);stroke-opacity:1;stroke-miterlimit:10;" d="M 104.542969 193.5 C 104.542969 196.105469 100.632812 196.105469 100.632812 193.5 C 100.632812 190.894531 104.542969 190.894531 104.542969 193.5 "/>
<path style="fill-rule:nonzero;fill:rgb(0%,0%,0%);fill-opacity:1;stroke-width:0.708661;stroke-linecap:round;stroke-linejoin:round;stroke:rgb(0%,0%,0%);stroke-opacity:1;stroke-miterlimit:10;" d="M 104.542969 193.5 C 104.542969 196.105469 100.632812 196.105469 100.632812 193.5 C 100.632812 190.894531 104.542969 190.894531 104.542969 193.5 "/>
<path style="fill-rule:nonzero;fill:rgb(0%,0%,0%);fill-opacity:1;stroke-width:0.708661;stroke-linecap:round;stroke-linejoin:round;stroke:rgb(0%,0%,0%);stroke-opacity:1;stroke-miterlimit:10;" d="M 104.542969 178.878906 C 104.542969 181.488281 100.632812 181.488281 100.632812 178.878906 C 100.632812 176.273438 104.542969 176.273438 104.542969 178.878906 "/>
<path style="fill-rule:nonzero;fill:rgb(0%,0%,0%);fill-opacity:1;stroke-width:0.708661;stroke-linecap:round;stroke-linejoin:round;stroke:rgb(0%,0%,0%);stroke-opacity:1;stroke-miterlimit:10;" d="M 154.160156 215.429688 C 154.160156 218.035156 150.25 218.035156 150.25 215.429688 C 150.25 212.820312 154.160156 212.820312 154.160156 215.429688 "/>
<path style="fill-rule:nonzero;fill:rgb(0%,0%,0%);fill-opacity:1;stroke-width:0.708661;stroke-linecap:round;stroke-linejoin:round;stroke:rgb(0%,0%,0%);stroke-opacity:1;stroke-miterlimit:10;" d="M 154.160156 200.808594 C 154.160156 203.414062 150.25 203.414062 150.25 200.808594 C 150.25 198.203125 154.160156 198.203125 154.160156 200.808594 "/>
<path style="fill-rule:nonzero;fill:rgb(0%,0%,0%);fill-opacity:1;stroke-width:0.708661;stroke-linecap:round;stroke-linejoin:round;stroke:rgb(0%,0%,0%);stroke-opacity:1;stroke-miterlimit:10;" d="M 196.691406 208.117188 C 196.691406 210.726562 192.78125 210.726562 192.78125 208.117188 C 192.78125 205.511719 196.691406 205.511719 196.691406 208.117188 "/>
<path style="fill-rule:nonzero;fill:rgb(0%,0%,0%);fill-opacity:1;stroke-width:0.708661;stroke-linecap:round;stroke-linejoin:round;stroke:rgb(0%,0%,0%);stroke-opacity:1;stroke-miterlimit:10;" d="M 196.691406 193.5 C 196.691406 196.105469 192.78125 196.105469 192.78125 193.5 C 192.78125 190.894531 196.691406 190.894531 196.691406 193.5 "/>
<path style="fill-rule:nonzero;fill:rgb(0%,0%,0%);fill-opacity:1;stroke-width:0.708661;stroke-linecap:round;stroke-linejoin:round;stroke:rgb(0%,0%,0%);stroke-opacity:1;stroke-miterlimit:10;" d="M 54.925781 127.714844 C 54.925781 130.320312 51.015625 130.320312 51.015625 127.714844 C 51.015625 125.109375 54.925781 125.109375 54.925781 127.714844 "/>
<path style="fill-rule:nonzero;fill:rgb(0%,0%,0%);fill-opacity:1;stroke-width:0.708661;stroke-linecap:round;stroke-linejoin:round;stroke:rgb(0%,0%,0%);stroke-opacity:1;stroke-miterlimit:10;" d="M 54.925781 149.644531 C 54.925781 152.25 51.015625 152.25 51.015625 149.644531 C 51.015625 147.035156 54.925781 147.035156 54.925781 149.644531 "/>
<path style="fill-rule:nonzero;fill:rgb(0%,0%,0%);fill-opacity:1;stroke-width:0.708661;stroke-linecap:round;stroke-linejoin:round;stroke:rgb(0%,0%,0%);stroke-opacity:1;stroke-miterlimit:10;" d="M 54.925781 127.714844 C 54.925781 130.320312 51.015625 130.320312 51.015625 127.714844 C 51.015625 125.109375 54.925781 125.109375 54.925781 127.714844 "/>
<path style="fill-rule:nonzero;fill:rgb(0%,0%,0%);fill-opacity:1;stroke-width:0.708661;stroke-linecap:round;stroke-linejoin:round;stroke:rgb(0%,0%,0%);stroke-opacity:1;stroke-miterlimit:10;" d="M 54.925781 127.714844 C 54.925781 130.320312 51.015625 130.320312 51.015625 127.714844 C 51.015625 125.109375 54.925781 125.109375 54.925781 127.714844 "/>
<path style="fill-rule:nonzero;fill:rgb(0%,0%,0%);fill-opacity:1;stroke-width:0.708661;stroke-linecap:round;stroke-linejoin:round;stroke:rgb(0%,0%,0%);stroke-opacity:1;stroke-miterlimit:10;" d="M 111.632812 164.261719 C 111.632812 166.867188 107.722656 166.867188 107.722656 164.261719 C 107.722656 161.65625 111.632812 161.65625 111.632812 164.261719 "/>
<path style="fill-rule:nonzero;fill:rgb(0%,0%,0%);fill-opacity:1;stroke-width:0.708661;stroke-linecap:round;stroke-linejoin:round;stroke:rgb(0%,0%,0%);stroke-opacity:1;stroke-miterlimit:10;" d="M 47.835938 18.070312 C 47.835938 20.679688 43.925781 20.679688 43.925781 18.070312 C 43.925781 15.464844 47.835938 15.464844 47.835938 18.070312 "/>
<path style="fill-rule:nonzero;fill:rgb(0%,0%,0%);fill-opacity:1;stroke-width:0.708661;stroke-linecap:round;stroke-linejoin:round;stroke:rgb(0%,0%,0%);stroke-opacity:1;stroke-miterlimit:10;" d="M 54.925781 127.714844 C 54.925781 130.320312 51.015625 130.320312 51.015625 127.714844 C 51.015625 125.109375 54.925781 125.109375 54.925781 127.714844 "/>
<path style="fill-rule:nonzero;fill:rgb(0%,0%,0%);fill-opacity:1;stroke-width:0.708661;stroke-linecap:round;stroke-linejoin:round;stroke:rgb(0%,0%,0%);stroke-opacity:1;stroke-miterlimit:10;" d="M 54.925781 149.644531 C 54.925781 152.25 51.015625 152.25 51.015625 149.644531 C 51.015625 147.035156 54.925781 147.035156 54.925781 149.644531 "/>
<path style="fill-rule:nonzero;fill:rgb(0%,0%,0%);fill-opacity:1;stroke-width:0.708661;stroke-linecap:round;stroke-linejoin:round;stroke:rgb(0%,0%,0%);stroke-opacity:1;stroke-miterlimit:10;" d="M 54.925781 127.714844 C 54.925781 130.320312 51.015625 130.320312 51.015625 127.714844 C 51.015625 125.109375 54.925781 125.109375 54.925781 127.714844 "/>
<path style="fill-rule:nonzero;fill:rgb(0%,0%,0%);fill-opacity:1;stroke-width:0.708661;stroke-linecap:round;stroke-linejoin:round;stroke:rgb(0%,0%,0%);stroke-opacity:1;stroke-miterlimit:10;" d="M 54.925781 127.714844 C 54.925781 130.320312 51.015625 130.320312 51.015625 127.714844 C 51.015625 125.109375 54.925781 125.109375 54.925781 127.714844 "/>
<path style="fill-rule:nonzero;fill:rgb(0%,0%,0%);fill-opacity:1;stroke-width:0.708661;stroke-linecap:round;stroke-linejoin:round;stroke:rgb(0%,0%,0%);stroke-opacity:1;stroke-miterlimit:10;" d="M 90.367188 127.714844 C 90.367188 130.320312 86.457031 130.320312 86.457031 127.714844 C 86.457031 125.109375 90.367188 125.109375 90.367188 127.714844 "/>
<path style="fill-rule:nonzero;fill:rgb(0%,0%,0%);fill-opacity:1;stroke-width:0.708661;stroke-linecap:round;stroke-linejoin:round;stroke:rgb(0%,0%,0%);stroke-opacity:1;stroke-miterlimit:10;" d="M 90.367188 127.714844 C 90.367188 130.320312 86.457031 130.320312 86.457031 127.714844 C 86.457031 125.109375 90.367188 125.109375 90.367188 127.714844 "/>
<path style="fill-rule:nonzero;fill:rgb(0%,0%,0%);fill-opacity:1;stroke-width:0.708661;stroke-linecap:round;stroke-linejoin:round;stroke:rgb(0%,0%,0%);stroke-opacity:1;stroke-miterlimit:10;" d="M 111.632812 171.570312 C 111.632812 174.175781 107.722656 174.175781 107.722656 171.570312 C 107.722656 168.964844 111.632812 168.964844 111.632812 171.570312 "/>
<path style="fill-rule:nonzero;fill:rgb(0%,0%,0%);fill-opacity:1;stroke-width:0.708661;stroke-linecap:round;stroke-linejoin:round;stroke:rgb(0%,0%,0%);stroke-opacity:1;stroke-miterlimit:10;" d="M 111.632812 164.261719 C 111.632812 166.867188 107.722656 166.867188 107.722656 164.261719 C 107.722656 161.65625 111.632812 161.65625 111.632812 164.261719 "/>
<path style="fill-rule:nonzero;fill:rgb(0%,0%,0%);fill-opacity:1;stroke-width:0.708661;stroke-linecap:round;stroke-linejoin:round;stroke:rgb(0%,0%,0%);stroke-opacity:1;stroke-miterlimit:10;" d="M 47.835938 18.070312 C 47.835938 20.679688 43.925781 20.679688 43.925781 18.070312 C 43.925781 15.464844 47.835938 15.464844 47.835938 18.070312 "/>
<path style="fill-rule:nonzero;fill:rgb(0%,0%,0%);fill-opacity:1;stroke-width:0.708661;stroke-linecap:round;stroke-linejoin:round;stroke:rgb(0%,0%,0%);stroke-opacity:1;stroke-miterlimit:10;" d="M 47.835938 40 C 47.835938 42.605469 43.925781 42.605469 43.925781 40 C 43.925781 37.394531 47.835938 37.394531 47.835938 40 "/>
<path style="fill-rule:nonzero;fill:rgb(0%,0%,0%);fill-opacity:1;stroke-width:0.708661;stroke-linecap:round;stroke-linejoin:round;stroke:rgb(0%,0%,0%);stroke-opacity:1;stroke-miterlimit:10;" d="M 54.925781 127.714844 C 54.925781 130.320312 51.015625 130.320312 51.015625 127.714844 C 51.015625 125.109375 54.925781 125.109375 54.925781 127.714844 "/>
<path style="fill-rule:nonzero;fill:rgb(0%,0%,0%);fill-opacity:1;stroke-width:0.708661;stroke-linecap:round;stroke-linejoin:round;stroke:rgb(0%,0%,0%);stroke-opacity:1;stroke-miterlimit:10;" d="M 54.925781 149.644531 C 54.925781 152.25 51.015625 152.25 51.015625 149.644531 C 51.015625 147.035156 54.925781 147.035156 54.925781 149.644531 "/>
<path style="fill-rule:nonzero;fill:rgb(0%,0%,0%);fill-opacity:1;stroke-width:0.708661;stroke-linecap:round;stroke-linejoin:round;stroke:rgb(0%,0%,0%);stroke-opacity:1;stroke-miterlimit:10;" d="M 90.367188 135.023438 C 90.367188 137.628906 86.457031 137.628906 86.457031 135.023438 C 86.457031 132.417969 90.367188 132.417969 90.367188 135.023438 "/>
<path style="fill-rule:nonzero;fill:rgb(0%,0%,0%);fill-opacity:1;stroke-width:0.708661;stroke-linecap:round;stroke-linejoin:round;stroke:rgb(0%,0%,0%);stroke-opacity:1;stroke-miterlimit:10;" d="M 90.367188 127.714844 C 90.367188 130.320312 86.457031 130.320312 86.457031 127.714844 C 86.457031 125.109375 90.367188 125.109375 90.367188 127.714844 "/>
<path style="fill-rule:nonzero;fill:rgb(0%,0%,0%);fill-opacity:1;stroke-width:0.708661;stroke-linecap:round;stroke-linejoin:round;stroke:rgb(0%,0%,0%);stroke-opacity:1;stroke-miterlimit:10;" d="M 40.75 127.714844 C 40.75 130.320312 36.839844 130.320312 36.839844 127.714844 C 36.839844 125.109375 40.75 125.109375 40.75 127.714844 "/>
<path style="fill-rule:nonzero;fill:rgb(0%,0%,0%);fill-opacity:1;stroke-width:0.708661;stroke-linecap:round;stroke-linejoin:round;stroke:rgb(0%,0%,0%);stroke-opacity:1;stroke-miterlimit:10;" d="M 40.75 127.714844 C 40.75 130.320312 36.839844 130.320312 36.839844 127.714844 C 36.839844 125.109375 40.75 125.109375 40.75 127.714844 "/>
<path style="fill-rule:nonzero;fill:rgb(0%,0%,0%);fill-opacity:1;stroke-width:0.708661;stroke-linecap:round;stroke-linejoin:round;stroke:rgb(0%,0%,0%);stroke-opacity:1;stroke-miterlimit:10;" d="M 54.925781 135.023438 C 54.925781 137.628906 51.015625 137.628906 51.015625 135.023438 C 51.015625 132.417969 54.925781 132.417969 54.925781 135.023438 "/>
<path style="fill-rule:nonzero;fill:rgb(0%,0%,0%);fill-opacity:1;stroke-width:0.708661;stroke-linecap:round;stroke-linejoin:round;stroke:rgb(0%,0%,0%);stroke-opacity:1;stroke-miterlimit:10;" d="M 54.925781 127.714844 C 54.925781 130.320312 51.015625 130.320312 51.015625 127.714844 C 51.015625 125.109375 54.925781 125.109375 54.925781 127.714844 "/>
<path style="fill-rule:nonzero;fill:rgb(0%,0%,0%);fill-opacity:1;stroke-width:0.708661;stroke-linecap:round;stroke-linejoin:round;stroke:rgb(0%,0%,0%);stroke-opacity:1;stroke-miterlimit:10;" d="M 111.632812 149.644531 C 111.632812 152.25 107.722656 152.25 107.722656 149.644531 C 107.722656 147.035156 111.632812 147.035156 111.632812 149.644531 "/>
<path style="fill-rule:nonzero;fill:rgb(0%,0%,0%);fill-opacity:1;stroke-width:0.708661;stroke-linecap:round;stroke-linejoin:round;stroke:rgb(0%,0%,0%);stroke-opacity:1;stroke-miterlimit:10;" d="M 111.632812 149.644531 C 111.632812 152.25 107.722656 152.25 107.722656 149.644531 C 107.722656 147.035156 111.632812 147.035156 111.632812 149.644531 "/>
<path style="fill-rule:nonzero;fill:rgb(0%,0%,0%);fill-opacity:1;stroke-width:0.708661;stroke-linecap:round;stroke-linejoin:round;stroke:rgb(0%,0%,0%);stroke-opacity:1;stroke-miterlimit:10;" d="M 168.335938 149.644531 C 168.335938 152.25 164.425781 152.25 164.425781 149.644531 C 164.425781 147.035156 168.335938 147.035156 168.335938 149.644531 "/>
<path style=" stroke:none;fill-rule:nonzero;fill:rgb(60%,60%,60%);fill-opacity:0.4;" d="M 24.617188 113.683594 L 29.460938 115.601562 L 34.308594 117.523438 L 39.152344 119.4375 L 44 121.351562 L 48.84375 123.265625 L 53.6875 125.171875 L 58.535156 127.078125 L 68.222656 130.882812 L 73.070312 132.777344 L 77.914062 134.667969 L 82.757812 136.554688 L 87.605469 138.4375 L 92.449219 140.316406 L 97.292969 142.1875 L 102.140625 144.054688 L 106.984375 145.914062 L 111.828125 147.765625 L 116.675781 149.613281 L 121.519531 151.449219 L 126.367188 153.28125 L 131.210938 155.101562 L 136.054688 156.914062 L 140.902344 158.714844 L 145.746094 160.507812 L 150.589844 162.292969 L 155.4375 164.066406 L 160.28125 165.828125 L 165.125 167.582031 L 169.972656 169.324219 L 174.816406 171.054688 L 179.660156 172.777344 L 184.507812 174.492188 L 189.351562 176.199219 L 194.195312 177.894531 L 199.042969 179.582031 L 203.886719 181.261719 L 208.730469 182.9375 L 213.578125 184.605469 L 218.421875 186.265625 L 223.269531 187.917969 L 228.113281 189.566406 L 232.957031 191.210938 L 237.804688 192.851562 L 242.648438 194.488281 L 247.492188 196.117188 L 252.339844 197.746094 L 257.183594 199.371094 L 262.027344 200.992188 L 266.875 202.609375 L 271.71875 204.226562 L 276.5625 205.839844 L 281.410156 207.449219 L 286.253906 209.058594 L 291.097656 210.664062 L 295.945312 212.269531 L 300.789062 213.875 L 305.632812 215.476562 L 310.480469 217.074219 L 315.324219 218.675781 L 320.171875 220.273438 L 325.015625 221.867188 L 329.859375 223.464844 L 334.707031 225.058594 L 339.550781 226.652344 L 344.394531 228.242188 L 349.242188 229.835938 L 358.929688 233.015625 L 363.777344 234.605469 L 368.621094 236.195312 L 373.464844 237.78125 L 378.3125 239.371094 L 388 242.542969 L 392.847656 244.128906 L 397.691406 245.714844 L 402.539062 247.296875 L 407.382812 248.882812 L 407.382812 269.929688 L 402.539062 267.984375 L 397.691406 266.039062 L 392.847656 264.097656 L 388 262.15625 L 378.3125 258.273438 L 373.464844 256.332031 L 368.621094 254.390625 L 363.777344 252.453125 L 358.929688 250.515625 L 354.085938 248.574219 L 349.242188 246.636719 L 344.394531 244.703125 L 339.550781 242.765625 L 334.707031 240.832031 L 329.859375 238.898438 L 325.015625 236.964844 L 320.171875 235.035156 L 315.324219 233.101562 L 310.480469 231.175781 L 305.632812 229.246094 L 295.945312 225.394531 L 291.097656 223.472656 L 286.253906 221.550781 L 281.410156 219.632812 L 276.5625 217.714844 L 266.875 213.886719 L 262.027344 211.976562 L 257.183594 210.070312 L 252.339844 208.167969 L 247.492188 206.265625 L 237.804688 202.476562 L 232.957031 200.589844 L 228.113281 198.707031 L 223.269531 196.828125 L 218.421875 194.953125 L 213.578125 193.085938 L 208.730469 191.226562 L 203.886719 189.371094 L 199.042969 187.523438 L 194.195312 185.683594 L 189.351562 183.851562 L 184.507812 182.027344 L 179.660156 180.214844 L 174.816406 178.410156 L 169.972656 176.613281 L 165.125 174.828125 L 160.28125 173.054688 L 155.4375 171.289062 L 150.589844 169.535156 L 145.746094 167.789062 L 140.902344 166.054688 L 136.054688 164.328125 L 131.210938 162.613281 L 126.367188 160.90625 L 121.519531 159.207031 L 116.675781 157.515625 L 111.828125 155.835938 L 106.984375 154.160156 L 102.140625 152.492188 L 97.292969 150.828125 L 92.449219 149.171875 L 87.605469 147.523438 L 82.757812 145.878906 L 77.914062 144.238281 L 73.070312 142.601562 L 68.222656 140.96875 L 63.378906 139.339844 L 58.535156 137.714844 L 53.6875 136.09375 L 48.84375 134.472656 L 44 132.855469 L 39.152344 131.242188 L 34.308594 129.632812 L 29.460938 128.023438 L 24.617188 126.414062 Z M 24.617188 113.683594 "/>
<path style="fill:none;stroke-width:2.133957;stroke-linecap:butt;stroke-linejoin:round;stroke:rgb(20%,40%,100%);stroke-opacity:1;stroke-miterlimit:10;" d="M 24.617188 120.046875 L 29.460938 121.8125 L 34.308594 123.578125 L 39.152344 125.339844 L 44 127.105469 L 48.84375 128.867188 L 53.6875 130.632812 L 58.535156 132.398438 L 63.378906 134.160156 L 68.222656 135.925781 L 73.070312 137.6875 L 82.757812 141.21875 L 87.605469 142.980469 L 92.449219 144.746094 L 97.292969 146.507812 L 102.140625 148.273438 L 106.984375 150.035156 L 111.828125 151.800781 L 116.675781 153.566406 L 121.519531 155.328125 L 126.367188 157.09375 L 131.210938 158.855469 L 136.054688 160.621094 L 140.902344 162.386719 L 145.746094 164.148438 L 150.589844 165.914062 L 155.4375 167.675781 L 160.28125 169.441406 L 165.125 171.203125 L 169.972656 172.96875 L 174.816406 174.734375 L 179.660156 176.496094 L 184.507812 178.261719 L 189.351562 180.023438 L 194.195312 181.789062 L 199.042969 183.554688 L 203.886719 185.316406 L 208.730469 187.082031 L 213.578125 188.84375 L 218.421875 190.609375 L 223.269531 192.371094 L 232.957031 195.902344 L 237.804688 197.664062 L 242.648438 199.429688 L 247.492188 201.191406 L 252.339844 202.957031 L 257.183594 204.722656 L 262.027344 206.484375 L 266.875 208.25 L 271.71875 210.011719 L 276.5625 211.777344 L 281.410156 213.542969 L 286.253906 215.304688 L 291.097656 217.070312 L 295.945312 218.832031 L 300.789062 220.597656 L 305.632812 222.359375 L 310.480469 224.125 L 315.324219 225.890625 L 320.171875 227.652344 L 325.015625 229.417969 L 329.859375 231.179688 L 334.707031 232.945312 L 339.550781 234.710938 L 344.394531 236.472656 L 349.242188 238.238281 L 354.085938 240 L 358.929688 241.765625 L 363.777344 243.527344 L 373.464844 247.058594 L 378.3125 248.820312 L 383.15625 250.585938 L 388 252.347656 L 392.847656 254.113281 L 397.691406 255.878906 L 402.539062 257.640625 L 407.382812 259.40625 "/>
</g>
</svg>
